<svg xmlns="http://www.w3.org/2000/svg" xmlns:xlink="http://www.w3.org/1999/xlink" width="1920" zoomAndPan="magnify" viewBox="0 0 1440 809.999993" height="1080" preserveAspectRatio="xMidYMid meet" version="1.0"><defs><g/><clipPath id="08f65169bb"><path d="M 0.878906 0.238281 L 268.71875 0.238281 L 268.71875 62 L 0.878906 62 Z M 0.878906 0.238281 " clip-rule="nonzero"/></clipPath><clipPath id="1af7acb925"><path d="M 241 0.238281 L 267 0.238281 L 267 50 L 241 50 Z M 241 0.238281 " clip-rule="nonzero"/></clipPath><clipPath id="458323d40e"><rect x="0" width="269" y="0" height="62"/></clipPath><clipPath id="cce14ac960"><path d="M 17 62 L 258 62 L 258 106.558594 L 17 106.558594 Z M 17 62 " clip-rule="nonzero"/></clipPath><clipPath id="b1efd7f4a2"><rect x="0" width="241" y="0" height="45"/></clipPath><clipPath id="ea17aad6bb"><rect x="0" width="269" y="0" height="107"/></clipPath></defs><g transform="matrix(1, 0, 0, 1, 584, 342)"><g clip-path="url(#ea17aad6bb)"><g clip-path="url(#08f65169bb)"><g><g clip-path="url(#458323d40e)"><g fill="#ffffff" fill-opacity="1"><g transform="translate(0.886761, 48.533576)"><g><path d="M 29.515625 -10.039062 C 29.515625 -7.941406 29.003906 -6.101562 27.980469 -4.515625 C 26.964844 -2.9375 25.621094 -1.707031 23.953125 -0.828125 C 22.289062 0.0507812 20.445312 0.488281 18.421875 0.488281 L 2.488281 0.488281 L 2.816406 -0.207031 C 3.03125 -0.660156 3.203125 -1.285156 3.34375 -2.082031 C 3.484375 -2.902344 3.582031 -3.785156 3.640625 -4.722656 C 3.699219 -5.671875 3.734375 -6.578125 3.746094 -7.4375 C 3.761719 -8.304688 3.769531 -9.027344 3.769531 -9.601562 L 3.769531 -25.417969 C 3.769531 -25.996094 3.761719 -26.71875 3.746094 -27.582031 C 3.734375 -28.445312 3.699219 -29.351562 3.640625 -30.300781 C 3.582031 -31.238281 3.484375 -32.109375 3.34375 -32.917969 C 3.203125 -33.703125 3.027344 -34.339844 2.8125 -34.824219 L 2.507812 -35.511719 L 16.035156 -35.511719 C 17.890625 -35.511719 19.605469 -35.210938 21.183594 -34.609375 C 22.789062 -33.996094 24.09375 -33.03125 25.09375 -31.710938 C 26.097656 -30.378906 26.601562 -28.671875 26.601562 -26.59375 C 26.601562 -24.726562 26.148438 -23.101562 25.242188 -21.71875 C 24.332031 -20.332031 23.019531 -19.285156 21.304688 -18.578125 L 21.117188 -19.03125 L 21.214844 -19.511719 C 23.632812 -19.027344 25.613281 -17.972656 27.164062 -16.347656 C 28.730469 -14.703125 29.515625 -12.601562 29.515625 -10.039062 Z M 28.535156 -10.039062 C 28.535156 -12.339844 27.84375 -14.21875 26.457031 -15.675781 C 25.050781 -17.148438 23.238281 -18.109375 21.019531 -18.550781 L 19.4375 -18.871094 L 20.929688 -19.484375 C 22.460938 -20.113281 23.625 -21.035156 24.421875 -22.253906 C 25.222656 -23.476562 25.625 -24.921875 25.625 -26.59375 C 25.625 -28.453125 25.1875 -29.960938 24.3125 -31.121094 C 23.425781 -32.292969 22.269531 -33.148438 20.835938 -33.695312 C 19.371094 -34.253906 17.769531 -34.53125 16.035156 -34.53125 L 3.257812 -34.53125 L 3.257812 -35.019531 L 3.707031 -35.21875 C 3.953125 -34.660156 4.152344 -33.949219 4.304688 -33.085938 C 4.453125 -32.242188 4.558594 -31.332031 4.617188 -30.359375 C 4.675781 -29.394531 4.710938 -28.476562 4.726562 -27.597656 C 4.738281 -26.726562 4.746094 -26 4.746094 -25.417969 L 4.746094 -9.601562 C 4.746094 -9.019531 4.738281 -8.292969 4.726562 -7.421875 C 4.710938 -6.546875 4.675781 -5.625 4.617188 -4.664062 C 4.558594 -3.6875 4.453125 -2.773438 4.304688 -1.914062 C 4.152344 -1.03125 3.953125 -0.324219 3.699219 0.207031 L 3.257812 0 L 3.257812 -0.488281 L 18.421875 -0.488281 C 20.285156 -0.488281 21.972656 -0.890625 23.496094 -1.691406 C 25.015625 -2.492188 26.234375 -3.609375 27.160156 -5.042969 C 28.078125 -6.46875 28.535156 -8.132812 28.535156 -10.039062 Z M 6.527344 -33.328125 L 6.527344 -19.292969 L 6.039062 -19.292969 L 6.039062 -19.78125 L 16.035156 -19.78125 C 17.441406 -19.78125 18.746094 -20.042969 19.945312 -20.566406 C 21.121094 -21.078125 22.066406 -21.84375 22.78125 -22.855469 C 23.488281 -23.855469 23.84375 -25.101562 23.84375 -26.59375 C 23.84375 -28.101562 23.488281 -29.300781 22.777344 -30.199219 C 22.050781 -31.109375 21.105469 -31.773438 19.933594 -32.191406 C 18.726562 -32.621094 17.425781 -32.839844 16.035156 -32.839844 L 6.039062 -32.839844 L 6.039062 -33.328125 Z M 5.550781 -33.816406 L 16.035156 -33.816406 C 17.539062 -33.816406 18.945312 -33.582031 20.261719 -33.113281 C 21.609375 -32.632812 22.703125 -31.863281 23.542969 -30.804688 C 24.394531 -29.734375 24.820312 -28.328125 24.820312 -26.59375 C 24.820312 -24.894531 24.40625 -23.460938 23.582031 -22.289062 C 22.761719 -21.128906 21.679688 -20.257812 20.335938 -19.667969 C 19.011719 -19.09375 17.578125 -18.804688 16.035156 -18.804688 L 5.550781 -18.804688 Z M 18.421875 -17.109375 L 6.039062 -17.109375 L 6.039062 -17.597656 L 6.527344 -17.597656 L 6.527344 -1.695312 L 6.039062 -1.695312 L 6.039062 -2.183594 L 18.421875 -2.183594 C 19.964844 -2.183594 21.367188 -2.511719 22.628906 -3.171875 C 23.882812 -3.824219 24.886719 -4.738281 25.636719 -5.910156 C 26.382812 -7.078125 26.753906 -8.453125 26.753906 -10.039062 C 26.753906 -11.609375 26.375 -12.910156 25.613281 -13.9375 C 24.839844 -14.984375 23.820312 -15.769531 22.558594 -16.300781 C 21.269531 -16.839844 19.894531 -17.109375 18.421875 -17.109375 Z M 18.421875 -18.085938 C 20.023438 -18.085938 21.527344 -17.792969 22.9375 -17.199219 C 24.363281 -16.601562 25.519531 -15.707031 26.398438 -14.519531 C 27.289062 -13.320312 27.734375 -11.824219 27.734375 -10.039062 C 27.734375 -8.261719 27.308594 -6.710938 26.460938 -5.386719 C 25.617188 -4.066406 24.492188 -3.039062 23.082031 -2.304688 C 21.679688 -1.570312 20.125 -1.207031 18.421875 -1.207031 L 5.550781 -1.207031 L 5.550781 -18.085938 Z M 18.421875 -18.085938 "/></g></g></g><g fill="#ffffff" fill-opacity="1"><g transform="translate(31.5196, 48.533576)"><g><path d="M 12.644531 -2.097656 L 14.925781 -2.097656 C 15.890625 -2.097656 16.949219 -2.117188 18.101562 -2.160156 C 19.25 -2.203125 20.386719 -2.277344 21.507812 -2.378906 C 22.621094 -2.476562 23.601562 -2.613281 24.453125 -2.78125 C 25.25 -2.941406 25.804688 -3.140625 26.121094 -3.386719 L 27.332031 -4.316406 L 25.867188 0.488281 L 2.28125 0.488281 L 2.867188 -0.292969 C 2.996094 -0.464844 3.113281 -0.8125 3.214844 -1.332031 C 3.324219 -1.90625 3.402344 -2.542969 3.445312 -3.246094 C 3.488281 -3.960938 3.515625 -4.644531 3.53125 -5.289062 C 3.542969 -5.9375 3.550781 -6.40625 3.550781 -6.691406 L 3.550781 -28.328125 C 3.550781 -28.617188 3.542969 -29.074219 3.53125 -29.710938 C 3.515625 -30.339844 3.488281 -31.023438 3.445312 -31.753906 C 3.402344 -32.472656 3.324219 -33.125 3.214844 -33.714844 C 3.113281 -34.238281 3.003906 -34.566406 2.886719 -34.703125 L 2.195312 -35.511719 L 24.953125 -35.511719 L 25.277344 -34.472656 C 25.421875 -34.011719 25.574219 -33.535156 25.730469 -33.042969 C 25.90625 -32.5 25.996094 -32.160156 25.996094 -32.023438 L 25.996094 -31.03125 L 25.207031 -31.636719 C 24.890625 -31.878906 24.335938 -32.082031 23.542969 -32.238281 C 22.691406 -32.410156 21.707031 -32.542969 20.59375 -32.644531 C 19.472656 -32.746094 18.339844 -32.816406 17.1875 -32.859375 C 16.035156 -32.902344 14.976562 -32.925781 14.011719 -32.925781 L 5.824219 -32.925781 L 5.824219 -33.414062 L 6.3125 -33.414062 L 6.3125 -18.640625 L 5.824219 -18.640625 L 5.824219 -19.128906 L 13.730469 -19.128906 C 14.046875 -19.128906 14.519531 -19.136719 15.152344 -19.152344 C 15.78125 -19.164062 16.460938 -19.199219 17.191406 -19.257812 C 17.914062 -19.316406 18.566406 -19.394531 19.144531 -19.492188 C 19.648438 -19.578125 19.96875 -19.679688 20.105469 -19.792969 L 20.910156 -20.484375 L 20.910156 -15.230469 L 20.105469 -15.921875 C 19.96875 -16.039062 19.644531 -16.136719 19.125 -16.226562 C 18.535156 -16.324219 17.871094 -16.394531 17.136719 -16.4375 C 16.386719 -16.480469 15.691406 -16.507812 15.042969 -16.523438 C 14.398438 -16.535156 13.929688 -16.542969 13.644531 -16.542969 L 5.824219 -16.542969 L 5.824219 -17.03125 L 6.3125 -17.03125 L 6.3125 -1.609375 L 5.824219 -1.609375 L 5.824219 -2.097656 Z M 12.644531 -1.117188 L 5.332031 -1.117188 L 5.332031 -17.523438 L 13.644531 -17.523438 C 13.9375 -17.523438 14.410156 -17.515625 15.066406 -17.5 C 15.722656 -17.484375 16.433594 -17.457031 17.191406 -17.414062 C 17.960938 -17.367188 18.660156 -17.292969 19.285156 -17.1875 C 19.984375 -17.074219 20.46875 -16.898438 20.738281 -16.664062 L 20.421875 -16.292969 L 19.933594 -16.292969 L 19.933594 -19.421875 L 20.421875 -19.421875 L 20.738281 -19.050781 C 20.46875 -18.820312 19.992188 -18.644531 19.308594 -18.527344 C 18.699219 -18.425781 18.019531 -18.34375 17.265625 -18.285156 C 16.519531 -18.226562 15.820312 -18.1875 15.175781 -18.171875 C 14.535156 -18.160156 14.054688 -18.152344 13.730469 -18.152344 L 5.332031 -18.152344 L 5.332031 -33.902344 L 14.011719 -33.902344 C 14.988281 -33.902344 16.058594 -33.878906 17.226562 -33.835938 C 18.390625 -33.792969 19.542969 -33.71875 20.683594 -33.617188 C 21.832031 -33.515625 22.847656 -33.375 23.734375 -33.199219 C 24.675781 -33.007812 25.367188 -32.746094 25.804688 -32.410156 L 25.503906 -32.023438 L 25.015625 -32.023438 C 25.015625 -32.058594 24.945312 -32.296875 24.800781 -32.742188 C 24.640625 -33.234375 24.488281 -33.714844 24.34375 -34.179688 L 24.125 -34.875 L 24.59375 -35.019531 L 24.59375 -34.53125 L 3.257812 -34.53125 L 3.257812 -35.019531 L 3.628906 -35.339844 C 3.859375 -35.070312 4.042969 -34.589844 4.171875 -33.894531 C 4.292969 -33.265625 4.375 -32.574219 4.421875 -31.8125 C 4.464844 -31.070312 4.492188 -30.375 4.507812 -29.730469 C 4.523438 -29.089844 4.53125 -28.625 4.53125 -28.328125 L 4.53125 -6.691406 C 4.53125 -6.398438 4.523438 -5.921875 4.507812 -5.269531 C 4.492188 -4.609375 4.464844 -3.917969 4.421875 -3.1875 C 4.375 -2.441406 4.292969 -1.761719 4.171875 -1.144531 C 4.042969 -0.476562 3.867188 0 3.648438 0.292969 L 3.257812 0 L 3.257812 -0.488281 L 25.503906 -0.488281 L 25.503906 0 L 25.039062 -0.140625 L 25.949219 -3.140625 L 26.417969 -3 L 26.714844 -2.609375 C 26.28125 -2.273438 25.589844 -2.011719 24.644531 -1.824219 C 23.757812 -1.644531 22.742188 -1.507812 21.59375 -1.402344 C 20.457031 -1.300781 19.304688 -1.226562 18.136719 -1.183594 C 16.972656 -1.140625 15.902344 -1.117188 14.925781 -1.117188 Z M 12.644531 -1.117188 "/></g></g></g><g fill="#ffffff" fill-opacity="1"><g transform="translate(59.545382, 48.533576)"><g><path d="M 32.265625 -34.703125 C 32.148438 -34.566406 32.039062 -34.238281 31.9375 -33.714844 C 31.828125 -33.125 31.75 -32.4375 31.707031 -31.648438 C 31.664062 -30.84375 31.636719 -30.015625 31.621094 -29.167969 C 31.605469 -28.316406 31.601562 -27.558594 31.601562 -26.894531 L 31.601562 2.113281 L 5.441406 -30.0625 L 5.824219 -30.371094 L 6.3125 -30.371094 L 6.3125 -8.148438 C 6.3125 -7.46875 6.320312 -6.703125 6.332031 -5.851562 C 6.347656 -5.007812 6.382812 -4.183594 6.441406 -3.378906 C 6.496094 -2.585938 6.574219 -1.890625 6.675781 -1.296875 C 6.761719 -0.777344 6.859375 -0.453125 6.976562 -0.316406 L 7.667969 0.488281 L 2.238281 0.488281 L 2.929688 -0.316406 C 3.046875 -0.453125 3.144531 -0.777344 3.234375 -1.296875 C 3.332031 -1.886719 3.402344 -2.578125 3.445312 -3.371094 C 3.488281 -4.175781 3.515625 -5.003906 3.53125 -5.851562 C 3.542969 -6.703125 3.550781 -7.46875 3.550781 -8.148438 L 3.550781 -37.136719 L 29.707031 -4.957031 L 29.328125 -4.648438 L 28.839844 -4.648438 L 28.839844 -26.894531 C 28.839844 -27.558594 28.832031 -28.316406 28.820312 -29.167969 C 28.804688 -30.015625 28.777344 -30.84375 28.734375 -31.648438 C 28.691406 -32.4375 28.613281 -33.125 28.5 -33.714844 C 28.402344 -34.238281 28.292969 -34.566406 28.175781 -34.703125 L 27.484375 -35.511719 L 32.957031 -35.511719 Z M 31.523438 -35.339844 L 31.894531 -35.019531 L 31.894531 -34.53125 L 28.546875 -34.53125 L 28.546875 -35.019531 L 28.917969 -35.339844 C 29.148438 -35.070312 29.328125 -34.589844 29.460938 -33.894531 C 29.582031 -33.265625 29.664062 -32.535156 29.707031 -31.703125 C 29.753906 -30.886719 29.78125 -30.046875 29.796875 -29.1875 C 29.8125 -28.328125 29.816406 -27.566406 29.816406 -26.894531 L 29.816406 -3.273438 L 3.660156 -35.453125 L 4.039062 -35.761719 L 4.53125 -35.761719 L 4.53125 -8.148438 C 4.53125 -7.464844 4.523438 -6.691406 4.507812 -5.835938 C 4.492188 -4.976562 4.464844 -4.136719 4.421875 -3.320312 C 4.375 -2.492188 4.300781 -1.761719 4.195312 -1.136719 C 4.082031 -0.4375 3.90625 0.046875 3.671875 0.316406 L 3.300781 0 L 3.300781 -0.488281 L 6.605469 -0.488281 L 6.605469 0 L 6.234375 0.316406 C 6 0.046875 5.824219 -0.4375 5.710938 -1.136719 C 5.605469 -1.757812 5.523438 -2.484375 5.464844 -3.3125 C 5.40625 -4.128906 5.371094 -4.972656 5.355469 -5.835938 C 5.339844 -6.691406 5.332031 -7.464844 5.332031 -8.148438 L 5.332031 -31.75 L 31.488281 0.429688 L 31.109375 0.738281 L 30.621094 0.738281 L 30.621094 -26.894531 C 30.621094 -27.566406 30.628906 -28.328125 30.644531 -29.1875 C 30.660156 -30.046875 30.6875 -30.886719 30.730469 -31.703125 C 30.777344 -32.535156 30.859375 -33.265625 30.976562 -33.894531 C 31.109375 -34.589844 31.292969 -35.070312 31.523438 -35.339844 Z M 31.523438 -35.339844 "/></g></g></g><g fill="#ffffff" fill-opacity="1"><g transform="translate(93.002524, 48.533576)"><g><path d="M 36.59375 -18.683594 C 36.832031 -16.023438 36.652344 -13.511719 36.058594 -11.15625 C 35.464844 -8.789062 34.472656 -6.707031 33.082031 -4.914062 C 31.6875 -3.113281 29.914062 -1.707031 27.757812 -0.6875 C 25.605469 0.328125 23.074219 0.835938 20.160156 0.835938 C 17.574219 0.835938 15.214844 0.375 13.078125 -0.550781 C 10.945312 -1.476562 9.109375 -2.765625 7.570312 -4.425781 C 6.035156 -6.078125 4.851562 -8.007812 4.019531 -10.210938 C 3.1875 -12.410156 2.769531 -14.773438 2.769531 -17.292969 C 2.769531 -20.84375 3.453125 -24.015625 4.820312 -26.808594 C 6.191406 -29.613281 8.1875 -31.832031 10.800781 -33.460938 C 13.414062 -35.085938 16.5625 -35.902344 20.25 -35.902344 C 22.585938 -35.902344 24.890625 -35.539062 27.152344 -34.8125 C 29.417969 -34.089844 31.5 -33.042969 33.394531 -31.679688 L 33.671875 -31.484375 L 32.609375 -27.625 L 32.011719 -28.484375 C 31.277344 -29.550781 30.242188 -30.433594 28.90625 -31.132812 C 27.539062 -31.855469 26.082031 -32.398438 24.546875 -32.765625 C 23.003906 -33.132812 21.570312 -33.316406 20.25 -33.316406 C 17.070312 -33.316406 14.410156 -32.609375 12.261719 -31.203125 C 10.109375 -29.792969 8.496094 -27.882812 7.421875 -25.480469 C 6.332031 -23.050781 5.789062 -20.324219 5.789062 -17.292969 C 5.789062 -15.148438 6.128906 -13.132812 6.804688 -11.246094 C 7.480469 -9.359375 8.441406 -7.695312 9.691406 -6.25 C 10.933594 -4.8125 12.441406 -3.679688 14.21875 -2.855469 C 15.992188 -2.03125 17.988281 -1.617188 20.203125 -1.617188 C 22.304688 -1.617188 24.203125 -2.023438 25.902344 -2.832031 C 27.609375 -3.640625 29.066406 -4.757812 30.28125 -6.183594 C 31.503906 -7.613281 32.4375 -9.257812 33.082031 -11.109375 C 33.730469 -12.964844 34.023438 -14.921875 33.96875 -16.976562 L 34.457031 -16.988281 L 34.457031 -16.5 L 32.195312 -16.5 C 31.15625 -16.5 29.992188 -16.492188 28.703125 -16.480469 C 27.421875 -16.464844 26.167969 -16.429688 24.941406 -16.371094 C 23.71875 -16.3125 22.65625 -16.242188 21.75 -16.15625 C 20.90625 -16.074219 20.382812 -15.980469 20.179688 -15.867188 L 18.871094 -15.136719 L 20.71875 -19.128906 L 36.554688 -19.128906 Z M 35.621094 -18.597656 L 36.109375 -18.640625 L 36.109375 -18.152344 L 21.03125 -18.152344 L 21.03125 -18.640625 L 21.472656 -18.433594 L 20.386719 -16.089844 L 19.945312 -16.292969 L 19.707031 -16.722656 C 20.027344 -16.898438 20.675781 -17.035156 21.65625 -17.128906 C 22.578125 -17.214844 23.65625 -17.289062 24.894531 -17.347656 C 26.132812 -17.40625 27.398438 -17.441406 28.695312 -17.457031 C 29.984375 -17.472656 31.152344 -17.476562 32.195312 -17.476562 L 34.933594 -17.476562 L 34.945312 -17.003906 C 35.003906 -14.828125 34.691406 -12.757812 34.003906 -10.789062 C 33.320312 -8.820312 32.328125 -7.074219 31.027344 -5.546875 C 29.722656 -4.019531 28.152344 -2.816406 26.324219 -1.949219 C 24.492188 -1.078125 22.449219 -0.640625 20.203125 -0.640625 C 17.84375 -0.640625 15.710938 -1.082031 13.808594 -1.96875 C 11.902344 -2.851562 10.285156 -4.066406 8.949219 -5.613281 C 7.621094 -7.148438 6.597656 -8.917969 5.882812 -10.914062 C 5.167969 -12.910156 4.8125 -15.035156 4.8125 -17.292969 C 4.8125 -20.460938 5.382812 -23.324219 6.527344 -25.878906 C 7.683594 -28.457031 9.414062 -30.503906 11.722656 -32.019531 C 14.035156 -33.535156 16.878906 -34.292969 20.25 -34.292969 C 21.648438 -34.292969 23.15625 -34.101562 24.773438 -33.714844 C 26.390625 -33.328125 27.921875 -32.757812 29.363281 -32 C 30.835938 -31.222656 31.988281 -30.238281 32.816406 -29.042969 L 32.414062 -28.765625 L 31.941406 -28.894531 L 32.636719 -31.414062 L 33.109375 -31.285156 L 32.824219 -30.886719 C 31.011719 -32.191406 29.023438 -33.1875 26.855469 -33.882812 C 24.6875 -34.578125 22.484375 -34.921875 20.25 -34.921875 C 16.75 -34.921875 13.773438 -34.160156 11.316406 -32.628906 C 8.863281 -31.101562 6.988281 -29.015625 5.695312 -26.378906 C 4.398438 -23.722656 3.746094 -20.695312 3.746094 -17.292969 C 3.746094 -14.890625 4.144531 -12.644531 4.933594 -10.558594 C 5.722656 -8.472656 6.839844 -6.652344 8.289062 -5.089844 C 9.734375 -3.53125 11.460938 -2.320312 13.46875 -1.449219 C 15.476562 -0.578125 17.707031 -0.140625 20.160156 -0.140625 C 22.925781 -0.140625 25.320312 -0.617188 27.339844 -1.570312 C 29.355469 -2.523438 31.011719 -3.835938 32.308594 -5.511719 C 33.617188 -7.199219 34.550781 -9.15625 35.113281 -11.394531 C 35.679688 -13.644531 35.847656 -16.046875 35.621094 -18.597656 Z M 35.621094 -18.597656 "/></g></g></g><g fill="#ffffff" fill-opacity="1"><g transform="translate(131.760673, 48.533576)"><g><path d="M 10.003906 -17.207031 C 10.003906 -16.203125 9.652344 -15.347656 8.949219 -14.644531 C 8.246094 -13.941406 7.40625 -13.589844 6.429688 -13.589844 C 5.425781 -13.589844 4.574219 -13.941406 3.867188 -14.644531 C 3.164062 -15.347656 2.8125 -16.203125 2.8125 -17.207031 C 2.8125 -18.210938 3.164062 -19.066406 3.867188 -19.769531 C 4.574219 -20.472656 5.425781 -20.824219 6.429688 -20.824219 C 7.40625 -20.824219 8.246094 -20.472656 8.949219 -19.769531 C 9.652344 -19.066406 10.003906 -18.210938 10.003906 -17.207031 Z M 9.027344 -17.207031 C 9.027344 -17.941406 8.769531 -18.5625 8.257812 -19.078125 C 7.746094 -19.589844 7.136719 -19.847656 6.429688 -19.847656 C 5.695312 -19.847656 5.074219 -19.589844 4.558594 -19.078125 C 4.046875 -18.5625 3.792969 -17.941406 3.792969 -17.207031 C 3.792969 -16.472656 4.046875 -15.847656 4.558594 -15.335938 C 5.074219 -14.824219 5.695312 -14.566406 6.429688 -14.566406 C 7.136719 -14.566406 7.746094 -14.824219 8.257812 -15.335938 C 8.769531 -15.847656 9.027344 -16.472656 9.027344 -17.207031 Z M 9.027344 -17.207031 "/></g></g></g><g fill="#ffffff" fill-opacity="1"><g transform="translate(143.839991, 48.533576)"><g><path d="M 33.175781 -3.296875 C 31.28125 -1.933594 29.207031 -0.898438 26.957031 -0.1875 C 24.707031 0.523438 22.425781 0.878906 20.117188 0.878906 C 16.460938 0.878906 13.335938 0.0820312 10.738281 -1.515625 C 8.136719 -3.117188 6.15625 -5.304688 4.796875 -8.085938 C 3.445312 -10.847656 2.769531 -13.988281 2.769531 -17.511719 C 2.769531 -21.035156 3.445312 -24.175781 4.796875 -26.9375 C 6.15625 -29.714844 8.136719 -31.90625 10.738281 -33.503906 C 13.335938 -35.101562 16.460938 -35.902344 20.117188 -35.902344 C 22.429688 -35.902344 24.707031 -35.539062 26.960938 -34.8125 C 29.207031 -34.089844 31.277344 -33.058594 33.171875 -31.726562 L 33.449219 -31.535156 L 32.445312 -27.652344 L 31.839844 -28.53125 C 31.101562 -29.59375 30.066406 -30.484375 28.730469 -31.203125 C 27.359375 -31.933594 25.914062 -32.484375 24.390625 -32.851562 C 22.867188 -33.21875 21.441406 -33.402344 20.117188 -33.402344 C 16.96875 -33.402344 14.320312 -32.710938 12.167969 -31.328125 C 10.019531 -29.945312 8.390625 -28.0625 7.289062 -25.671875 C 6.171875 -23.257812 5.617188 -20.539062 5.617188 -17.511719 C 5.617188 -14.484375 6.171875 -11.761719 7.289062 -9.351562 C 8.390625 -6.960938 10.019531 -5.074219 12.167969 -3.691406 C 14.320312 -2.308594 16.96875 -1.617188 20.117188 -1.617188 C 21.410156 -1.617188 22.828125 -1.800781 24.371094 -2.171875 C 25.90625 -2.535156 27.359375 -3.09375 28.726562 -3.839844 C 30.066406 -4.570312 31.101562 -5.457031 31.84375 -6.496094 L 32.449219 -7.351562 L 33.449219 -3.492188 Z M 32.605469 -4.089844 L 32.890625 -3.691406 L 32.417969 -3.570312 L 31.765625 -6.089844 L 32.242188 -6.214844 L 32.640625 -5.929688 C 31.8125 -4.769531 30.664062 -3.785156 29.195312 -2.980469 C 27.75 -2.195312 26.21875 -1.605469 24.597656 -1.21875 C 22.980469 -0.832031 21.488281 -0.640625 20.117188 -0.640625 C 16.777344 -0.640625 13.953125 -1.382812 11.640625 -2.871094 C 9.332031 -4.355469 7.582031 -6.378906 6.398438 -8.941406 C 5.226562 -11.484375 4.636719 -14.339844 4.636719 -17.511719 C 4.636719 -20.683594 5.226562 -23.539062 6.398438 -26.078125 C 7.582031 -28.644531 9.332031 -30.667969 11.640625 -32.152344 C 13.953125 -33.636719 16.777344 -34.378906 20.117188 -34.378906 C 21.519531 -34.378906 23.019531 -34.1875 24.621094 -33.800781 C 26.226562 -33.414062 27.75 -32.835938 29.191406 -32.0625 C 30.664062 -31.273438 31.816406 -30.28125 32.640625 -29.085938 L 32.242188 -28.808594 L 31.765625 -28.929688 L 32.417969 -31.449219 L 32.890625 -31.328125 L 32.609375 -30.929688 C 30.796875 -32.203125 28.8125 -33.1875 26.660156 -33.882812 C 24.507812 -34.578125 22.324219 -34.921875 20.117188 -34.921875 C 16.648438 -34.921875 13.691406 -34.171875 11.25 -32.671875 C 8.808594 -31.171875 6.953125 -29.117188 5.675781 -26.507812 C 4.390625 -23.882812 3.746094 -20.882812 3.746094 -17.511719 C 3.746094 -14.140625 4.390625 -11.140625 5.675781 -8.515625 C 6.953125 -5.90625 8.808594 -3.851562 11.25 -2.351562 C 13.691406 -0.847656 16.648438 -0.0976562 20.117188 -0.0976562 C 22.328125 -0.0976562 24.507812 -0.4375 26.660156 -1.117188 C 28.8125 -1.796875 30.796875 -2.789062 32.605469 -4.089844 Z M 32.605469 -4.089844 "/></g></g></g><g fill="#ffffff" fill-opacity="1"><g transform="translate(177.862004, 48.533576)"><g><path d="M 7.789062 -1 C 7.789062 -0.839844 7.796875 -0.6875 7.808594 -0.542969 C 7.820312 -0.398438 7.84375 -0.242188 7.867188 -0.0820312 L 7.964844 0.488281 L 1.9375 0.488281 L 2.941406 -0.371094 C 3.304688 -0.683594 3.714844 -1.214844 4.164062 -1.96875 C 4.636719 -2.753906 5.109375 -3.625 5.578125 -4.582031 C 6.054688 -5.546875 6.484375 -6.46875 6.875 -7.34375 L 7.765625 -9.367188 L 20.03125 -37.050781 L 31.992188 -10.148438 C 32.222656 -9.625 32.542969 -8.890625 32.949219 -7.949219 C 33.351562 -7.015625 33.8125 -6.023438 34.332031 -4.972656 C 34.847656 -3.925781 35.355469 -2.964844 35.859375 -2.089844 C 36.335938 -1.261719 36.765625 -0.691406 37.152344 -0.382812 L 38.238281 0.488281 L 32.050781 0.488281 L 32.199219 -0.117188 C 32.277344 -0.425781 32.316406 -0.722656 32.316406 -1 C 32.316406 -1.585938 32.15625 -2.359375 31.839844 -3.324219 C 31.511719 -4.328125 31.117188 -5.386719 30.660156 -6.507812 C 30.199219 -7.628906 29.738281 -8.6875 29.277344 -9.679688 C 28.8125 -10.679688 28.449219 -11.472656 28.1875 -12.050781 L 28.632812 -12.253906 L 28.632812 -11.765625 L 11.425781 -11.765625 L 11.425781 -12.253906 L 11.875 -12.050781 L 10.808594 -9.683594 C 10.363281 -8.691406 9.90625 -7.628906 9.445312 -6.507812 C 8.988281 -5.386719 8.59375 -4.328125 8.265625 -3.324219 C 7.945312 -2.359375 7.789062 -1.585938 7.789062 -1 Z M 6.8125 -1 C 6.8125 -1.6875 6.984375 -2.566406 7.335938 -3.628906 C 7.671875 -4.652344 8.074219 -5.738281 8.542969 -6.878906 C 9.007812 -8.011719 9.464844 -9.082031 9.917969 -10.085938 L 11.113281 -12.742188 L 28.949219 -12.742188 L 29.078125 -12.453125 C 29.339844 -11.875 29.703125 -11.089844 30.164062 -10.089844 C 30.628906 -9.085938 31.097656 -8.011719 31.5625 -6.878906 C 32.03125 -5.738281 32.433594 -4.652344 32.769531 -3.628906 C 33.121094 -2.566406 33.292969 -1.6875 33.292969 -1 C 33.292969 -0.640625 33.246094 -0.269531 33.148438 0.117188 L 32.675781 0 L 32.675781 -0.488281 L 36.847656 -0.488281 L 36.847656 0 L 36.542969 0.382812 C 36.058594 -0.00390625 35.546875 -0.667969 35.011719 -1.601562 C 34.5 -2.496094 33.980469 -3.476562 33.453125 -4.542969 C 32.929688 -5.605469 32.460938 -6.613281 32.050781 -7.5625 C 31.648438 -8.503906 31.328125 -9.230469 31.097656 -9.75 L 19.585938 -35.648438 L 20.03125 -35.847656 L 20.476562 -35.648438 L 8.660156 -8.972656 L 7.769531 -6.949219 C 7.375 -6.058594 6.9375 -5.128906 6.457031 -4.152344 C 5.972656 -3.167969 5.488281 -2.273438 5.003906 -1.464844 C 4.5 -0.621094 4.023438 -0.0117188 3.578125 0.371094 L 3.257812 0 L 3.257812 -0.488281 L 7.386719 -0.488281 L 7.386719 0 L 6.90625 0.0820312 C 6.875 -0.105469 6.851562 -0.285156 6.835938 -0.457031 C 6.820312 -0.628906 6.8125 -0.8125 6.8125 -1 Z M 20.480469 -31.828125 L 12.570312 -13.664062 L 12.121094 -13.859375 L 12.121094 -14.351562 L 27.9375 -14.351562 L 27.9375 -13.859375 L 27.492188 -13.664062 L 19.582031 -31.828125 L 20.03125 -32.023438 Z M 20.03125 -33.246094 L 28.683594 -13.371094 L 11.375 -13.371094 L 19.582031 -32.21875 Z M 20.03125 -33.246094 "/></g></g></g><g fill="#ffffff" fill-opacity="1"><g transform="translate(214.404141, 48.533576)"><g><path d="M 6.3125 -6.777344 C 6.3125 -6.492188 6.320312 -6.019531 6.332031 -5.355469 C 6.347656 -4.695312 6.375 -4 6.417969 -3.265625 C 6.460938 -2.546875 6.539062 -1.894531 6.648438 -1.308594 C 6.75 -0.785156 6.859375 -0.453125 6.976562 -0.316406 L 7.667969 0.488281 L 2.195312 0.488281 L 2.886719 -0.316406 C 3.003906 -0.453125 3.113281 -0.785156 3.214844 -1.308594 C 3.324219 -1.894531 3.402344 -2.542969 3.445312 -3.246094 C 3.488281 -3.960938 3.515625 -4.644531 3.53125 -5.289062 C 3.542969 -5.9375 3.550781 -6.40625 3.550781 -6.691406 L 3.550781 -28.328125 C 3.550781 -28.617188 3.542969 -29.082031 3.53125 -29.730469 C 3.515625 -30.375 3.488281 -31.058594 3.445312 -31.777344 C 3.402344 -32.480469 3.324219 -33.125 3.214844 -33.714844 C 3.113281 -34.238281 3.003906 -34.566406 2.886719 -34.703125 L 2.195312 -35.511719 L 24.953125 -35.511719 L 25.277344 -34.472656 C 25.421875 -34.011719 25.574219 -33.535156 25.730469 -33.042969 C 25.90625 -32.5 25.996094 -32.160156 25.996094 -32.023438 L 25.996094 -30.980469 L 25.191406 -31.648438 C 24.910156 -31.882812 24.371094 -32.082031 23.585938 -32.238281 C 22.734375 -32.410156 21.75 -32.542969 20.640625 -32.644531 C 19.519531 -32.746094 18.375 -32.816406 17.210938 -32.859375 C 16.042969 -32.902344 14.976562 -32.925781 14.011719 -32.925781 L 5.824219 -32.925781 L 5.824219 -33.414062 L 6.3125 -33.414062 L 6.3125 -18.683594 L 5.824219 -18.683594 L 5.824219 -19.171875 L 15.164062 -19.171875 C 15.789062 -19.171875 16.464844 -19.203125 17.191406 -19.257812 C 17.914062 -19.316406 18.566406 -19.394531 19.144531 -19.492188 C 19.648438 -19.578125 19.96875 -19.679688 20.105469 -19.792969 L 20.910156 -20.484375 L 20.910156 -15.230469 L 20.105469 -15.921875 C 19.96875 -16.039062 19.644531 -16.136719 19.125 -16.226562 C 18.535156 -16.324219 17.871094 -16.394531 17.136719 -16.4375 C 16.386719 -16.480469 15.691406 -16.507812 15.042969 -16.523438 C 14.398438 -16.535156 13.929688 -16.542969 13.644531 -16.542969 L 5.824219 -16.542969 L 5.824219 -17.03125 L 6.3125 -17.03125 Z M 5.332031 -6.777344 L 5.332031 -17.523438 L 13.644531 -17.523438 C 13.9375 -17.523438 14.410156 -17.515625 15.066406 -17.5 C 15.722656 -17.484375 16.433594 -17.457031 17.191406 -17.414062 C 17.960938 -17.367188 18.660156 -17.292969 19.285156 -17.1875 C 19.984375 -17.074219 20.46875 -16.898438 20.738281 -16.664062 L 20.421875 -16.292969 L 19.933594 -16.292969 L 19.933594 -19.421875 L 20.421875 -19.421875 L 20.738281 -19.050781 C 20.46875 -18.820312 19.992188 -18.644531 19.308594 -18.527344 C 18.699219 -18.425781 18.019531 -18.34375 17.265625 -18.285156 C 16.515625 -18.222656 15.8125 -18.195312 15.164062 -18.195312 L 5.332031 -18.195312 L 5.332031 -33.902344 L 14.011719 -33.902344 C 14.988281 -33.902344 16.066406 -33.878906 17.246094 -33.835938 C 18.429688 -33.792969 19.589844 -33.71875 20.726562 -33.617188 C 21.875 -33.515625 22.890625 -33.375 23.777344 -33.199219 C 24.726562 -33.007812 25.40625 -32.742188 25.820312 -32.398438 L 25.503906 -32.023438 L 25.015625 -32.023438 C 25.015625 -32.058594 24.945312 -32.296875 24.800781 -32.742188 C 24.640625 -33.234375 24.488281 -33.714844 24.34375 -34.179688 L 24.125 -34.875 L 24.59375 -35.019531 L 24.59375 -34.53125 L 3.257812 -34.53125 L 3.257812 -35.019531 L 3.628906 -35.339844 C 3.859375 -35.070312 4.042969 -34.589844 4.171875 -33.894531 C 4.292969 -33.265625 4.375 -32.582031 4.421875 -31.835938 C 4.464844 -31.105469 4.492188 -30.410156 4.507812 -29.753906 C 4.523438 -29.097656 4.53125 -28.625 4.53125 -28.328125 L 4.53125 -6.691406 C 4.53125 -6.398438 4.523438 -5.921875 4.507812 -5.269531 C 4.492188 -4.609375 4.464844 -3.917969 4.421875 -3.1875 C 4.375 -2.441406 4.292969 -1.753906 4.171875 -1.125 C 4.042969 -0.429688 3.859375 0.0507812 3.628906 0.316406 L 3.257812 0 L 3.257812 -0.488281 L 6.605469 -0.488281 L 6.605469 0 L 6.234375 0.316406 C 6.003906 0.0507812 5.820312 -0.429688 5.691406 -1.125 C 5.570312 -1.753906 5.488281 -2.449219 5.441406 -3.207031 C 5.398438 -3.953125 5.371094 -4.660156 5.355469 -5.332031 C 5.339844 -6.003906 5.332031 -6.484375 5.332031 -6.777344 Z M 5.332031 -6.777344 "/></g></g></g><g clip-path="url(#1af7acb925)"><g fill="#ffffff" fill-opacity="1"><g transform="translate(239.605627, 48.533576)"><g><path d="M 19.875 -47.46875 L 22.019531 -45.59375 L 13.804688 -37.90625 L 13.007812 -38.703125 L 19.46875 -47.824219 Z M 19.230469 -46.734375 L 19.554688 -47.101562 L 19.953125 -46.816406 L 14.042969 -38.476562 L 13.644531 -38.757812 L 13.988281 -39.105469 L 14.164062 -38.929688 L 13.816406 -38.585938 L 13.484375 -38.941406 L 20.957031 -45.9375 L 21.289062 -45.578125 L 20.96875 -45.210938 Z M 12.644531 -2.097656 L 14.925781 -2.097656 C 15.890625 -2.097656 16.949219 -2.117188 18.101562 -2.160156 C 19.25 -2.203125 20.386719 -2.277344 21.507812 -2.378906 C 22.621094 -2.476562 23.601562 -2.613281 24.453125 -2.78125 C 25.25 -2.941406 25.804688 -3.140625 26.121094 -3.386719 L 27.332031 -4.316406 L 25.867188 0.488281 L 2.28125 0.488281 L 2.867188 -0.292969 C 2.996094 -0.464844 3.113281 -0.8125 3.214844 -1.332031 C 3.324219 -1.90625 3.402344 -2.542969 3.445312 -3.246094 C 3.488281 -3.960938 3.515625 -4.644531 3.53125 -5.289062 C 3.542969 -5.9375 3.550781 -6.40625 3.550781 -6.691406 L 3.550781 -28.328125 C 3.550781 -28.617188 3.542969 -29.074219 3.53125 -29.710938 C 3.515625 -30.339844 3.488281 -31.023438 3.445312 -31.753906 C 3.402344 -32.472656 3.324219 -33.125 3.214844 -33.714844 C 3.113281 -34.238281 3.003906 -34.566406 2.886719 -34.703125 L 2.195312 -35.511719 L 24.953125 -35.511719 L 25.277344 -34.472656 C 25.421875 -34.011719 25.574219 -33.535156 25.730469 -33.042969 C 25.90625 -32.5 25.996094 -32.160156 25.996094 -32.023438 L 25.996094 -31.03125 L 25.207031 -31.636719 C 24.890625 -31.878906 24.335938 -32.082031 23.542969 -32.238281 C 22.691406 -32.410156 21.707031 -32.542969 20.59375 -32.644531 C 19.472656 -32.746094 18.339844 -32.816406 17.1875 -32.859375 C 16.035156 -32.902344 14.976562 -32.925781 14.011719 -32.925781 L 5.824219 -32.925781 L 5.824219 -33.414062 L 6.3125 -33.414062 L 6.3125 -18.640625 L 5.824219 -18.640625 L 5.824219 -19.128906 L 13.730469 -19.128906 C 14.046875 -19.128906 14.519531 -19.136719 15.152344 -19.152344 C 15.78125 -19.164062 16.460938 -19.199219 17.191406 -19.257812 C 17.914062 -19.316406 18.566406 -19.394531 19.144531 -19.492188 C 19.648438 -19.578125 19.96875 -19.679688 20.105469 -19.792969 L 20.910156 -20.484375 L 20.910156 -15.230469 L 20.105469 -15.921875 C 19.96875 -16.039062 19.644531 -16.136719 19.125 -16.226562 C 18.535156 -16.324219 17.871094 -16.394531 17.136719 -16.4375 C 16.386719 -16.480469 15.691406 -16.507812 15.042969 -16.523438 C 14.398438 -16.535156 13.929688 -16.542969 13.644531 -16.542969 L 5.824219 -16.542969 L 5.824219 -17.03125 L 6.3125 -17.03125 L 6.3125 -1.609375 L 5.824219 -1.609375 L 5.824219 -2.097656 Z M 12.644531 -1.117188 L 5.332031 -1.117188 L 5.332031 -17.523438 L 13.644531 -17.523438 C 13.9375 -17.523438 14.410156 -17.515625 15.066406 -17.5 C 15.722656 -17.484375 16.433594 -17.457031 17.191406 -17.414062 C 17.960938 -17.367188 18.660156 -17.292969 19.285156 -17.1875 C 19.984375 -17.074219 20.46875 -16.898438 20.738281 -16.664062 L 20.421875 -16.292969 L 19.933594 -16.292969 L 19.933594 -19.421875 L 20.421875 -19.421875 L 20.738281 -19.050781 C 20.46875 -18.820312 19.992188 -18.644531 19.308594 -18.527344 C 18.699219 -18.425781 18.019531 -18.34375 17.265625 -18.285156 C 16.519531 -18.226562 15.820312 -18.1875 15.175781 -18.171875 C 14.535156 -18.160156 14.054688 -18.152344 13.730469 -18.152344 L 5.332031 -18.152344 L 5.332031 -33.902344 L 14.011719 -33.902344 C 14.988281 -33.902344 16.058594 -33.878906 17.226562 -33.835938 C 18.390625 -33.792969 19.542969 -33.71875 20.683594 -33.617188 C 21.832031 -33.515625 22.847656 -33.375 23.734375 -33.199219 C 24.675781 -33.007812 25.367188 -32.746094 25.804688 -32.410156 L 25.503906 -32.023438 L 25.015625 -32.023438 C 25.015625 -32.058594 24.945312 -32.296875 24.800781 -32.742188 C 24.640625 -33.234375 24.488281 -33.714844 24.34375 -34.179688 L 24.125 -34.875 L 24.59375 -35.019531 L 24.59375 -34.53125 L 3.257812 -34.53125 L 3.257812 -35.019531 L 3.628906 -35.339844 C 3.859375 -35.070312 4.042969 -34.589844 4.171875 -33.894531 C 4.292969 -33.265625 4.375 -32.574219 4.421875 -31.8125 C 4.464844 -31.070312 4.492188 -30.375 4.507812 -29.730469 C 4.523438 -29.089844 4.53125 -28.625 4.53125 -28.328125 L 4.53125 -6.691406 C 4.53125 -6.398438 4.523438 -5.921875 4.507812 -5.269531 C 4.492188 -4.609375 4.464844 -3.917969 4.421875 -3.1875 C 4.375 -2.441406 4.292969 -1.761719 4.171875 -1.144531 C 4.042969 -0.476562 3.867188 0 3.648438 0.292969 L 3.257812 0 L 3.257812 -0.488281 L 25.503906 -0.488281 L 25.503906 0 L 25.039062 -0.140625 L 25.949219 -3.140625 L 26.417969 -3 L 26.714844 -2.609375 C 26.28125 -2.273438 25.589844 -2.011719 24.644531 -1.824219 C 23.757812 -1.644531 22.742188 -1.507812 21.59375 -1.402344 C 20.457031 -1.300781 19.304688 -1.226562 18.136719 -1.183594 C 16.972656 -1.140625 15.902344 -1.117188 14.925781 -1.117188 Z M 12.644531 -1.117188 "/></g></g></g></g><g fill="#ffffff" fill-opacity="1"><g transform="translate(0.886761, 48.533576)"><g><path d="M 29.03125 -10.03125 C 29.03125 -8.039062 28.539062 -6.289062 27.5625 -4.78125 C 26.59375 -3.269531 25.3125 -2.09375 23.71875 -1.25 C 22.125 -0.414062 20.359375 0 18.421875 0 L 3.265625 0 C 3.492188 -0.488281 3.679688 -1.15625 3.828125 -2 C 3.972656 -2.84375 4.070312 -3.738281 4.125 -4.6875 C 4.1875 -5.644531 4.222656 -6.554688 4.234375 -7.421875 C 4.253906 -8.296875 4.265625 -9.023438 4.265625 -9.609375 L 4.265625 -25.421875 C 4.265625 -26.003906 4.253906 -26.726562 4.234375 -27.59375 C 4.222656 -28.457031 4.1875 -29.367188 4.125 -30.328125 C 4.070312 -31.285156 3.972656 -32.175781 3.828125 -33 C 3.679688 -33.820312 3.492188 -34.492188 3.265625 -35.015625 L 16.03125 -35.015625 C 17.832031 -35.015625 19.492188 -34.722656 21.015625 -34.140625 C 22.535156 -33.566406 23.765625 -32.65625 24.703125 -31.40625 C 25.640625 -30.164062 26.109375 -28.5625 26.109375 -26.59375 C 26.109375 -24.820312 25.679688 -23.285156 24.828125 -21.984375 C 23.972656 -20.679688 22.738281 -19.695312 21.125 -19.03125 C 23.4375 -18.570312 25.332031 -17.566406 26.8125 -16.015625 C 28.289062 -14.460938 29.03125 -12.46875 29.03125 -10.03125 Z M 6.046875 -33.328125 L 6.046875 -19.296875 L 16.03125 -19.296875 C 17.507812 -19.296875 18.878906 -19.566406 20.140625 -20.109375 C 21.398438 -20.660156 22.410156 -21.476562 23.171875 -22.5625 C 23.941406 -23.65625 24.328125 -25 24.328125 -26.59375 C 24.328125 -28.21875 23.9375 -29.519531 23.15625 -30.5 C 22.375 -31.488281 21.351562 -32.207031 20.09375 -32.65625 C 18.832031 -33.101562 17.476562 -33.328125 16.03125 -33.328125 Z M 18.421875 -17.59375 L 6.046875 -17.59375 L 6.046875 -1.6875 L 18.421875 -1.6875 C 20.046875 -1.6875 21.523438 -2.035156 22.859375 -2.734375 C 24.191406 -3.429688 25.253906 -4.398438 26.046875 -5.640625 C 26.847656 -6.890625 27.25 -8.351562 27.25 -10.03125 C 27.25 -11.71875 26.832031 -13.117188 26 -14.234375 C 25.175781 -15.347656 24.09375 -16.1875 22.75 -16.75 C 21.40625 -17.3125 19.960938 -17.59375 18.421875 -17.59375 Z M 18.421875 -17.59375 "/></g></g></g><g fill="#ffffff" fill-opacity="1"><g transform="translate(31.5196, 48.533576)"><g><path d="M 12.640625 -1.609375 C 13.191406 -1.609375 13.953125 -1.609375 14.921875 -1.609375 C 15.890625 -1.609375 16.953125 -1.628906 18.109375 -1.671875 C 19.273438 -1.710938 20.421875 -1.785156 21.546875 -1.890625 C 22.679688 -1.992188 23.679688 -2.128906 24.546875 -2.296875 C 25.421875 -2.472656 26.046875 -2.707031 26.421875 -3 L 25.5 0 L 3.265625 0 C 3.429688 -0.226562 3.570312 -0.640625 3.6875 -1.234375 C 3.8125 -1.828125 3.894531 -2.484375 3.9375 -3.203125 C 3.976562 -3.929688 4.003906 -4.617188 4.015625 -5.265625 C 4.035156 -5.921875 4.046875 -6.394531 4.046875 -6.6875 L 4.046875 -28.328125 C 4.046875 -28.617188 4.035156 -29.082031 4.015625 -29.71875 C 4.003906 -30.351562 3.976562 -31.039062 3.9375 -31.78125 C 3.894531 -32.519531 3.8125 -33.191406 3.6875 -33.796875 C 3.570312 -34.410156 3.429688 -34.816406 3.265625 -35.015625 L 24.59375 -35.015625 C 24.59375 -35.015625 24.664062 -34.78125 24.8125 -34.3125 C 24.957031 -33.851562 25.109375 -33.378906 25.265625 -32.890625 C 25.421875 -32.398438 25.5 -32.113281 25.5 -32.03125 C 25.125 -32.3125 24.5 -32.539062 23.625 -32.71875 C 22.757812 -32.894531 21.765625 -33.03125 20.640625 -33.125 C 19.515625 -33.226562 18.367188 -33.300781 17.203125 -33.34375 C 16.046875 -33.394531 14.984375 -33.421875 14.015625 -33.421875 C 13.046875 -33.421875 12.300781 -33.421875 11.78125 -33.421875 L 5.828125 -33.421875 L 5.828125 -18.640625 L 13.734375 -18.640625 C 14.046875 -18.640625 14.519531 -18.644531 15.15625 -18.65625 C 15.800781 -18.675781 16.492188 -18.710938 17.234375 -18.765625 C 17.972656 -18.828125 18.640625 -18.90625 19.234375 -19 C 19.828125 -19.101562 20.222656 -19.242188 20.421875 -19.421875 L 20.421875 -16.296875 C 20.222656 -16.472656 19.816406 -16.609375 19.203125 -16.703125 C 18.597656 -16.804688 17.914062 -16.878906 17.15625 -16.921875 C 16.40625 -16.960938 15.703125 -16.988281 15.046875 -17 C 14.398438 -17.019531 13.929688 -17.03125 13.640625 -17.03125 L 5.828125 -17.03125 L 5.828125 -1.609375 Z M 12.640625 -1.609375 "/></g></g></g><g fill="#ffffff" fill-opacity="1"><g transform="translate(59.545382, 48.533576)"><g><path d="M 31.890625 -35.015625 C 31.722656 -34.816406 31.578125 -34.410156 31.453125 -33.796875 C 31.335938 -33.191406 31.257812 -32.484375 31.21875 -31.671875 C 31.175781 -30.859375 31.144531 -30.023438 31.125 -29.171875 C 31.113281 -28.316406 31.109375 -27.554688 31.109375 -26.890625 C 31.109375 -26.222656 31.109375 -25.734375 31.109375 -25.421875 L 31.109375 0.734375 L 5.828125 -30.375 L 5.828125 -9.609375 C 5.828125 -9.316406 5.828125 -8.828125 5.828125 -8.140625 C 5.828125 -7.460938 5.832031 -6.695312 5.84375 -5.84375 C 5.851562 -4.988281 5.890625 -4.15625 5.953125 -3.34375 C 6.015625 -2.53125 6.09375 -1.816406 6.1875 -1.203125 C 6.289062 -0.597656 6.429688 -0.195312 6.609375 0 L 3.296875 0 C 3.472656 -0.195312 3.613281 -0.597656 3.71875 -1.203125 C 3.820312 -1.816406 3.894531 -2.53125 3.9375 -3.34375 C 3.976562 -4.15625 4.003906 -4.988281 4.015625 -5.84375 C 4.035156 -6.695312 4.046875 -7.460938 4.046875 -8.140625 C 4.046875 -8.828125 4.046875 -9.316406 4.046875 -9.609375 L 4.046875 -35.765625 L 29.328125 -4.65625 L 29.328125 -25.421875 C 29.328125 -25.734375 29.328125 -26.222656 29.328125 -26.890625 C 29.328125 -27.554688 29.316406 -28.316406 29.296875 -29.171875 C 29.285156 -30.023438 29.257812 -30.859375 29.21875 -31.671875 C 29.175781 -32.484375 29.097656 -33.191406 28.984375 -33.796875 C 28.867188 -34.410156 28.722656 -34.816406 28.546875 -35.015625 Z M 31.890625 -35.015625 "/></g></g></g><g fill="#ffffff" fill-opacity="1"><g transform="translate(93.002524, 48.533576)"><g><path d="M 36.109375 -18.640625 C 36.335938 -16.035156 36.160156 -13.582031 35.578125 -11.28125 C 35.003906 -8.976562 34.039062 -6.957031 32.6875 -5.21875 C 31.34375 -3.476562 29.628906 -2.113281 27.546875 -1.125 C 25.460938 -0.144531 23 0.34375 20.15625 0.34375 C 17.632812 0.34375 15.335938 -0.101562 13.265625 -1 C 11.203125 -1.894531 9.421875 -3.144531 7.921875 -4.75 C 6.429688 -6.363281 5.28125 -8.238281 4.46875 -10.375 C 3.664062 -12.519531 3.265625 -14.828125 3.265625 -17.296875 C 3.265625 -20.773438 3.925781 -23.875 5.25 -26.59375 C 6.582031 -29.3125 8.515625 -31.460938 11.046875 -33.046875 C 13.585938 -34.628906 16.65625 -35.421875 20.25 -35.421875 C 22.539062 -35.421875 24.789062 -35.0625 27 -34.34375 C 29.21875 -33.632812 31.253906 -32.613281 33.109375 -31.28125 L 32.421875 -28.765625 C 31.640625 -29.890625 30.546875 -30.820312 29.140625 -31.5625 C 27.734375 -32.300781 26.238281 -32.859375 24.65625 -33.234375 C 23.082031 -33.617188 21.613281 -33.8125 20.25 -33.8125 C 16.976562 -33.8125 14.222656 -33.078125 11.984375 -31.609375 C 9.753906 -30.148438 8.082031 -28.171875 6.96875 -25.671875 C 5.851562 -23.179688 5.296875 -20.390625 5.296875 -17.296875 C 5.296875 -15.085938 5.644531 -13.015625 6.34375 -11.078125 C 7.039062 -9.140625 8.03125 -7.421875 9.3125 -5.921875 C 10.601562 -4.429688 12.164062 -3.257812 14 -2.40625 C 15.84375 -1.550781 17.910156 -1.125 20.203125 -1.125 C 22.378906 -1.125 24.347656 -1.546875 26.109375 -2.390625 C 27.878906 -3.234375 29.394531 -4.390625 30.65625 -5.859375 C 31.914062 -7.335938 32.878906 -9.03125 33.546875 -10.9375 C 34.210938 -12.851562 34.515625 -14.867188 34.453125 -16.984375 C 33.992188 -16.984375 33.242188 -16.984375 32.203125 -16.984375 C 31.160156 -16.984375 29.992188 -16.976562 28.703125 -16.96875 C 27.410156 -16.957031 26.148438 -16.921875 24.921875 -16.859375 C 23.691406 -16.796875 22.617188 -16.722656 21.703125 -16.640625 C 20.796875 -16.554688 20.207031 -16.441406 19.9375 -16.296875 L 21.03125 -18.640625 Z M 36.109375 -18.640625 "/></g></g></g><g fill="#ffffff" fill-opacity="1"><g transform="translate(131.760673, 48.533576)"><g><path d="M 9.515625 -17.203125 C 9.515625 -16.335938 9.207031 -15.597656 8.59375 -14.984375 C 7.988281 -14.378906 7.269531 -14.078125 6.4375 -14.078125 C 5.5625 -14.078125 4.816406 -14.378906 4.203125 -14.984375 C 3.597656 -15.597656 3.296875 -16.335938 3.296875 -17.203125 C 3.296875 -18.078125 3.597656 -18.816406 4.203125 -19.421875 C 4.816406 -20.035156 5.5625 -20.34375 6.4375 -20.34375 C 7.269531 -20.34375 7.988281 -20.035156 8.59375 -19.421875 C 9.207031 -18.816406 9.515625 -18.078125 9.515625 -17.203125 Z M 9.515625 -17.203125 "/></g></g></g><g fill="#ffffff" fill-opacity="1"><g transform="translate(143.839991, 48.533576)"><g><path d="M 32.890625 -3.6875 C 31.035156 -2.351562 29.007812 -1.335938 26.8125 -0.640625 C 24.613281 0.046875 22.382812 0.390625 20.125 0.390625 C 16.5625 0.390625 13.519531 -0.382812 11 -1.9375 C 8.476562 -3.488281 6.554688 -5.609375 5.234375 -8.296875 C 3.921875 -10.992188 3.265625 -14.066406 3.265625 -17.515625 C 3.265625 -20.960938 3.921875 -24.03125 5.234375 -26.71875 C 6.554688 -29.414062 8.476562 -31.539062 11 -33.09375 C 13.519531 -34.644531 16.5625 -35.421875 20.125 -35.421875 C 22.382812 -35.421875 24.613281 -35.0625 26.8125 -34.34375 C 29.007812 -33.632812 31.035156 -32.628906 32.890625 -31.328125 L 32.25 -28.8125 C 31.457031 -29.9375 30.359375 -30.875 28.953125 -31.625 C 27.554688 -32.382812 26.070312 -32.953125 24.5 -33.328125 C 22.9375 -33.703125 21.476562 -33.890625 20.125 -33.890625 C 16.875 -33.890625 14.132812 -33.171875 11.90625 -31.734375 C 9.675781 -30.304688 7.988281 -28.351562 6.84375 -25.875 C 5.695312 -23.394531 5.125 -20.609375 5.125 -17.515625 C 5.125 -14.410156 5.695312 -11.617188 6.84375 -9.140625 C 7.988281 -6.671875 9.675781 -4.71875 11.90625 -3.28125 C 14.132812 -1.84375 16.875 -1.125 20.125 -1.125 C 21.457031 -1.125 22.910156 -1.3125 24.484375 -1.6875 C 26.066406 -2.070312 27.554688 -2.644531 28.953125 -3.40625 C 30.359375 -4.175781 31.457031 -5.113281 32.25 -6.21875 Z M 32.890625 -3.6875 "/></g></g></g><g fill="#ffffff" fill-opacity="1"><g transform="translate(177.862004, 48.533576)"><g><path d="M 7.296875 -1 C 7.296875 -0.820312 7.300781 -0.65625 7.3125 -0.5 C 7.332031 -0.34375 7.359375 -0.175781 7.390625 0 L 3.265625 0 C 3.671875 -0.34375 4.109375 -0.910156 4.578125 -1.703125 C 5.054688 -2.503906 5.535156 -3.390625 6.015625 -4.359375 C 6.492188 -5.335938 6.925781 -6.265625 7.3125 -7.140625 C 7.707031 -8.023438 8.007812 -8.703125 8.21875 -9.171875 L 20.03125 -35.84375 L 31.546875 -9.953125 C 31.773438 -9.429688 32.09375 -8.695312 32.5 -7.75 C 32.90625 -6.8125 33.367188 -5.8125 33.890625 -4.75 C 34.410156 -3.695312 34.925781 -2.726562 35.4375 -1.84375 C 35.945312 -0.957031 36.414062 -0.34375 36.84375 0 L 32.671875 0 C 32.765625 -0.34375 32.8125 -0.675781 32.8125 -1 C 32.8125 -1.632812 32.644531 -2.457031 32.3125 -3.46875 C 31.976562 -4.488281 31.578125 -5.5625 31.109375 -6.6875 C 30.648438 -7.820312 30.1875 -8.890625 29.71875 -9.890625 C 29.257812 -10.890625 28.898438 -11.675781 28.640625 -12.25 L 11.421875 -12.25 C 11.160156 -11.675781 10.804688 -10.890625 10.359375 -9.890625 C 9.910156 -8.890625 9.453125 -7.820312 8.984375 -6.6875 C 8.523438 -5.5625 8.128906 -4.488281 7.796875 -3.46875 C 7.460938 -2.457031 7.296875 -1.632812 7.296875 -1 Z M 20.03125 -32.03125 L 12.125 -13.859375 L 27.9375 -13.859375 Z M 20.03125 -32.03125 "/></g></g></g><g fill="#ffffff" fill-opacity="1"><g transform="translate(214.404141, 48.533576)"><g><path d="M 5.828125 -6.78125 C 5.828125 -6.488281 5.832031 -6.007812 5.84375 -5.34375 C 5.851562 -4.675781 5.878906 -3.972656 5.921875 -3.234375 C 5.972656 -2.492188 6.054688 -1.816406 6.171875 -1.203125 C 6.285156 -0.597656 6.429688 -0.195312 6.609375 0 L 3.265625 0 C 3.429688 -0.195312 3.570312 -0.597656 3.6875 -1.203125 C 3.8125 -1.816406 3.894531 -2.484375 3.9375 -3.203125 C 3.976562 -3.929688 4.003906 -4.617188 4.015625 -5.265625 C 4.035156 -5.921875 4.046875 -6.394531 4.046875 -6.6875 L 4.046875 -28.328125 C 4.046875 -28.617188 4.035156 -29.085938 4.015625 -29.734375 C 4.003906 -30.390625 3.976562 -31.078125 3.9375 -31.796875 C 3.894531 -32.523438 3.8125 -33.191406 3.6875 -33.796875 C 3.570312 -34.410156 3.429688 -34.816406 3.265625 -35.015625 L 24.59375 -35.015625 C 24.59375 -35.015625 24.664062 -34.78125 24.8125 -34.3125 C 24.957031 -33.851562 25.109375 -33.378906 25.265625 -32.890625 C 25.421875 -32.398438 25.5 -32.113281 25.5 -32.03125 C 25.15625 -32.3125 24.546875 -32.539062 23.671875 -32.71875 C 22.804688 -32.894531 21.804688 -33.03125 20.671875 -33.125 C 19.546875 -33.226562 18.394531 -33.300781 17.21875 -33.34375 C 16.050781 -33.394531 14.984375 -33.421875 14.015625 -33.421875 C 13.046875 -33.421875 12.285156 -33.421875 11.734375 -33.421875 L 5.828125 -33.421875 L 5.828125 -18.6875 L 13.734375 -18.6875 C 14.046875 -18.6875 14.519531 -18.6875 15.15625 -18.6875 C 15.800781 -18.6875 16.492188 -18.710938 17.234375 -18.765625 C 17.972656 -18.828125 18.640625 -18.90625 19.234375 -19 C 19.828125 -19.101562 20.222656 -19.242188 20.421875 -19.421875 L 20.421875 -16.296875 C 20.222656 -16.472656 19.816406 -16.609375 19.203125 -16.703125 C 18.597656 -16.804688 17.914062 -16.878906 17.15625 -16.921875 C 16.40625 -16.960938 15.703125 -16.988281 15.046875 -17 C 14.398438 -17.019531 13.929688 -17.03125 13.640625 -17.03125 L 5.828125 -17.03125 Z M 5.828125 -6.78125 "/></g></g></g><g fill="#ffffff" fill-opacity="1"><g transform="translate(239.605627, 48.533576)"><g><path d="M 19.546875 -47.109375 L 21.296875 -45.578125 L 13.8125 -38.59375 L 13.640625 -38.765625 Z M 12.640625 -1.609375 C 13.191406 -1.609375 13.953125 -1.609375 14.921875 -1.609375 C 15.890625 -1.609375 16.953125 -1.628906 18.109375 -1.671875 C 19.273438 -1.710938 20.421875 -1.785156 21.546875 -1.890625 C 22.679688 -1.992188 23.679688 -2.128906 24.546875 -2.296875 C 25.421875 -2.472656 26.046875 -2.707031 26.421875 -3 L 25.5 0 L 3.265625 0 C 3.429688 -0.226562 3.570312 -0.640625 3.6875 -1.234375 C 3.8125 -1.828125 3.894531 -2.484375 3.9375 -3.203125 C 3.976562 -3.929688 4.003906 -4.617188 4.015625 -5.265625 C 4.035156 -5.921875 4.046875 -6.394531 4.046875 -6.6875 L 4.046875 -28.328125 C 4.046875 -28.617188 4.035156 -29.082031 4.015625 -29.71875 C 4.003906 -30.351562 3.976562 -31.039062 3.9375 -31.78125 C 3.894531 -32.519531 3.8125 -33.191406 3.6875 -33.796875 C 3.570312 -34.410156 3.429688 -34.816406 3.265625 -35.015625 L 24.59375 -35.015625 C 24.59375 -35.015625 24.664062 -34.78125 24.8125 -34.3125 C 24.957031 -33.851562 25.109375 -33.378906 25.265625 -32.890625 C 25.421875 -32.398438 25.5 -32.113281 25.5 -32.03125 C 25.125 -32.3125 24.5 -32.539062 23.625 -32.71875 C 22.757812 -32.894531 21.765625 -33.03125 20.640625 -33.125 C 19.515625 -33.226562 18.367188 -33.300781 17.203125 -33.34375 C 16.046875 -33.394531 14.984375 -33.421875 14.015625 -33.421875 C 13.046875 -33.421875 12.300781 -33.421875 11.78125 -33.421875 L 5.828125 -33.421875 L 5.828125 -18.640625 L 13.734375 -18.640625 C 14.046875 -18.640625 14.519531 -18.644531 15.15625 -18.65625 C 15.800781 -18.675781 16.492188 -18.710938 17.234375 -18.765625 C 17.972656 -18.828125 18.640625 -18.90625 19.234375 -19 C 19.828125 -19.101562 20.222656 -19.242188 20.421875 -19.421875 L 20.421875 -16.296875 C 20.222656 -16.472656 19.816406 -16.609375 19.203125 -16.703125 C 18.597656 -16.804688 17.914062 -16.878906 17.15625 -16.921875 C 16.40625 -16.960938 15.703125 -16.988281 15.046875 -17 C 14.398438 -17.019531 13.929688 -17.03125 13.640625 -17.03125 L 5.828125 -17.03125 L 5.828125 -1.609375 Z M 12.640625 -1.609375 "/></g></g></g></g></g></g><g clip-path="url(#cce14ac960)"><g transform="matrix(1, 0, 0, 1, 17, 62)"><g clip-path="url(#b1efd7f4a2)"><g fill="#ffffff" fill-opacity="1"><g transform="translate(58.411719, 10.513255)"><g><path d="M 3.90625 -7.234375 C 4.457031 -7.234375 4.96875 -7.148438 5.4375 -6.984375 C 5.90625 -6.816406 6.320312 -6.53125 6.6875 -6.125 C 6.84375 -5.945312 6.910156 -5.78125 6.890625 -5.625 C 6.867188 -5.46875 6.796875 -5.34375 6.671875 -5.25 C 6.546875 -5.15625 6.398438 -5.109375 6.234375 -5.109375 C 6.066406 -5.117188 5.910156 -5.203125 5.765625 -5.359375 C 5.484375 -5.671875 5.1875 -5.867188 4.875 -5.953125 C 4.570312 -6.046875 4.25 -6.09375 3.90625 -6.09375 C 3.425781 -6.09375 3.007812 -5.988281 2.65625 -5.78125 C 2.3125 -5.570312 2.039062 -5.285156 1.84375 -4.921875 C 1.644531 -4.554688 1.546875 -4.128906 1.546875 -3.640625 C 1.546875 -3.117188 1.644531 -2.660156 1.84375 -2.265625 C 2.039062 -1.867188 2.320312 -1.5625 2.6875 -1.34375 C 3.050781 -1.132812 3.472656 -1.03125 3.953125 -1.03125 C 4.304688 -1.03125 4.65625 -1.117188 5 -1.296875 C 5.351562 -1.472656 5.632812 -1.6875 5.84375 -1.9375 C 5.988281 -2.125 6.148438 -2.226562 6.328125 -2.25 C 6.503906 -2.28125 6.65625 -2.25 6.78125 -2.15625 C 6.914062 -2.070312 6.992188 -1.953125 7.015625 -1.796875 C 7.046875 -1.640625 6.992188 -1.46875 6.859375 -1.28125 C 6.660156 -0.988281 6.398438 -0.738281 6.078125 -0.53125 C 5.753906 -0.320312 5.40625 -0.160156 5.03125 -0.046875 C 4.664062 0.0546875 4.300781 0.109375 3.9375 0.109375 C 3.195312 0.109375 2.550781 -0.046875 2 -0.359375 C 1.445312 -0.671875 1.015625 -1.109375 0.703125 -1.671875 C 0.398438 -2.234375 0.25 -2.890625 0.25 -3.640625 C 0.25 -4.359375 0.410156 -4.984375 0.734375 -5.515625 C 1.054688 -6.054688 1.492188 -6.476562 2.046875 -6.78125 C 2.597656 -7.082031 3.21875 -7.234375 3.90625 -7.234375 Z M 3.90625 -7.234375 "/></g></g></g><g fill="#ffffff" fill-opacity="1"><g transform="translate(70.081321, 10.513255)"><g><path d="M 7.546875 -3.546875 C 7.546875 -2.816406 7.394531 -2.175781 7.09375 -1.625 C 6.789062 -1.070312 6.363281 -0.644531 5.8125 -0.34375 C 5.269531 -0.0390625 4.632812 0.109375 3.90625 0.109375 C 3.175781 0.109375 2.535156 -0.0390625 1.984375 -0.34375 C 1.429688 -0.644531 1.003906 -1.070312 0.703125 -1.625 C 0.398438 -2.175781 0.25 -2.816406 0.25 -3.546875 C 0.25 -4.285156 0.398438 -4.929688 0.703125 -5.484375 C 1.003906 -6.035156 1.429688 -6.460938 1.984375 -6.765625 C 2.535156 -7.078125 3.175781 -7.234375 3.90625 -7.234375 C 4.632812 -7.234375 5.269531 -7.078125 5.8125 -6.765625 C 6.363281 -6.460938 6.789062 -6.035156 7.09375 -5.484375 C 7.394531 -4.929688 7.546875 -4.285156 7.546875 -3.546875 Z M 3.90625 -1.03125 C 4.375 -1.03125 4.78125 -1.132812 5.125 -1.34375 C 5.476562 -1.5625 5.75 -1.859375 5.9375 -2.234375 C 6.132812 -2.609375 6.234375 -3.046875 6.234375 -3.546875 C 6.234375 -4.054688 6.132812 -4.5 5.9375 -4.875 C 5.75 -5.257812 5.476562 -5.554688 5.125 -5.765625 C 4.78125 -5.984375 4.375 -6.09375 3.90625 -6.09375 C 3.4375 -6.09375 3.023438 -5.984375 2.671875 -5.765625 C 2.316406 -5.554688 2.039062 -5.257812 1.84375 -4.875 C 1.65625 -4.5 1.5625 -4.054688 1.5625 -3.546875 C 1.5625 -3.046875 1.65625 -2.609375 1.84375 -2.234375 C 2.039062 -1.859375 2.316406 -1.5625 2.671875 -1.34375 C 3.023438 -1.132812 3.4375 -1.03125 3.90625 -1.03125 Z M 3.90625 -1.03125 "/></g></g></g><g fill="#ffffff" fill-opacity="1"><g transform="translate(82.621855, 10.513255)"><g><path d="M 1.9375 -6.03125 L 1.9375 -3.8125 L 5.5 -3.8125 C 5.695312 -3.8125 5.84375 -3.753906 5.9375 -3.640625 C 6.039062 -3.523438 6.09375 -3.398438 6.09375 -3.265625 C 6.09375 -3.128906 6.039062 -3.003906 5.9375 -2.890625 C 5.84375 -2.785156 5.695312 -2.734375 5.5 -2.734375 L 1.9375 -2.734375 L 1.9375 -0.609375 C 1.9375 -0.410156 1.867188 -0.257812 1.734375 -0.15625 C 1.597656 -0.0507812 1.453125 0 1.296875 0 C 1.128906 0 0.976562 -0.0507812 0.84375 -0.15625 C 0.707031 -0.257812 0.640625 -0.40625 0.640625 -0.59375 L 0.640625 -6.453125 C 0.640625 -6.628906 0.710938 -6.78125 0.859375 -6.90625 C 1.003906 -7.039062 1.175781 -7.109375 1.375 -7.109375 L 5.703125 -7.109375 C 5.910156 -7.109375 6.0625 -7.050781 6.15625 -6.9375 C 6.25 -6.832031 6.296875 -6.707031 6.296875 -6.5625 C 6.296875 -6.4375 6.25 -6.316406 6.15625 -6.203125 C 6.0625 -6.085938 5.910156 -6.03125 5.703125 -6.03125 Z M 1.9375 -6.03125 "/></g></g></g><g fill="#ffffff" fill-opacity="1"><g transform="translate(93.73317, 10.513255)"><g><path d="M 1.9375 -6.03125 L 1.9375 -3.8125 L 5.5 -3.8125 C 5.695312 -3.8125 5.84375 -3.753906 5.9375 -3.640625 C 6.039062 -3.523438 6.09375 -3.398438 6.09375 -3.265625 C 6.09375 -3.128906 6.039062 -3.003906 5.9375 -2.890625 C 5.84375 -2.785156 5.695312 -2.734375 5.5 -2.734375 L 1.9375 -2.734375 L 1.9375 -0.609375 C 1.9375 -0.410156 1.867188 -0.257812 1.734375 -0.15625 C 1.597656 -0.0507812 1.453125 0 1.296875 0 C 1.128906 0 0.976562 -0.0507812 0.84375 -0.15625 C 0.707031 -0.257812 0.640625 -0.40625 0.640625 -0.59375 L 0.640625 -6.453125 C 0.640625 -6.628906 0.710938 -6.78125 0.859375 -6.90625 C 1.003906 -7.039062 1.175781 -7.109375 1.375 -7.109375 L 5.703125 -7.109375 C 5.910156 -7.109375 6.0625 -7.050781 6.15625 -6.9375 C 6.25 -6.832031 6.296875 -6.707031 6.296875 -6.5625 C 6.296875 -6.4375 6.25 -6.316406 6.15625 -6.203125 C 6.0625 -6.085938 5.910156 -6.03125 5.703125 -6.03125 Z M 1.9375 -6.03125 "/></g></g></g><g fill="#ffffff" fill-opacity="1"><g transform="translate(104.844485, 10.513255)"><g><path d="M 5.828125 -1.109375 C 6.015625 -1.109375 6.160156 -1.046875 6.265625 -0.921875 C 6.378906 -0.804688 6.4375 -0.675781 6.4375 -0.53125 C 6.4375 -0.394531 6.382812 -0.269531 6.28125 -0.15625 C 6.1875 -0.0507812 6.035156 0 5.828125 0 L 1.390625 0 C 1.160156 0 0.976562 -0.0625 0.84375 -0.1875 C 0.707031 -0.320312 0.640625 -0.484375 0.640625 -0.671875 L 0.640625 -6.453125 C 0.640625 -6.628906 0.707031 -6.78125 0.84375 -6.90625 C 0.976562 -7.039062 1.160156 -7.109375 1.390625 -7.109375 L 5.828125 -7.109375 C 6.023438 -7.109375 6.171875 -7.054688 6.265625 -6.953125 C 6.359375 -6.847656 6.40625 -6.722656 6.40625 -6.578125 C 6.40625 -6.441406 6.351562 -6.3125 6.25 -6.1875 C 6.15625 -6.070312 6.015625 -6.015625 5.828125 -6.015625 L 1.921875 -6.015625 L 1.921875 -4.0625 L 5.625 -4.0625 C 5.8125 -4.0625 5.953125 -4.003906 6.046875 -3.890625 C 6.148438 -3.773438 6.203125 -3.648438 6.203125 -3.515625 C 6.203125 -3.378906 6.148438 -3.253906 6.046875 -3.140625 C 5.953125 -3.023438 5.8125 -2.96875 5.625 -2.96875 L 1.921875 -2.96875 L 1.921875 -1.109375 Z M 5.828125 -1.109375 "/></g></g></g><g fill="#ffffff" fill-opacity="1"><g transform="translate(116.201445, 10.513255)"><g><path d="M 5.828125 -1.109375 C 6.015625 -1.109375 6.160156 -1.046875 6.265625 -0.921875 C 6.378906 -0.804688 6.4375 -0.675781 6.4375 -0.53125 C 6.4375 -0.394531 6.382812 -0.269531 6.28125 -0.15625 C 6.1875 -0.0507812 6.035156 0 5.828125 0 L 1.390625 0 C 1.160156 0 0.976562 -0.0625 0.84375 -0.1875 C 0.707031 -0.320312 0.640625 -0.484375 0.640625 -0.671875 L 0.640625 -6.453125 C 0.640625 -6.628906 0.707031 -6.78125 0.84375 -6.90625 C 0.976562 -7.039062 1.160156 -7.109375 1.390625 -7.109375 L 5.828125 -7.109375 C 6.023438 -7.109375 6.171875 -7.054688 6.265625 -6.953125 C 6.359375 -6.847656 6.40625 -6.722656 6.40625 -6.578125 C 6.40625 -6.441406 6.351562 -6.3125 6.25 -6.1875 C 6.15625 -6.070312 6.015625 -6.015625 5.828125 -6.015625 L 1.921875 -6.015625 L 1.921875 -4.0625 L 5.625 -4.0625 C 5.8125 -4.0625 5.953125 -4.003906 6.046875 -3.890625 C 6.148438 -3.773438 6.203125 -3.648438 6.203125 -3.515625 C 6.203125 -3.378906 6.148438 -3.253906 6.046875 -3.140625 C 5.953125 -3.023438 5.8125 -2.96875 5.625 -2.96875 L 1.921875 -2.96875 L 1.921875 -1.109375 Z M 5.828125 -1.109375 "/></g></g></g><g fill="#ffffff" fill-opacity="1"><g transform="translate(127.558402, 10.513255)"><g/></g></g><g fill="#ffffff" fill-opacity="1"><g transform="translate(134.828697, 10.513255)"><g><path d="M 0.078125 -1.6875 C 0.0234375 -1.90625 0.078125 -2.078125 0.234375 -2.203125 C 0.390625 -2.328125 0.566406 -2.390625 0.765625 -2.390625 C 0.910156 -2.390625 1.039062 -2.351562 1.15625 -2.28125 C 1.269531 -2.207031 1.34375 -2.097656 1.375 -1.953125 C 1.457031 -1.710938 1.609375 -1.523438 1.828125 -1.390625 C 2.054688 -1.265625 2.3125 -1.175781 2.59375 -1.125 C 2.882812 -1.082031 3.148438 -1.0625 3.390625 -1.0625 C 3.585938 -1.0625 3.800781 -1.078125 4.03125 -1.109375 C 4.257812 -1.140625 4.476562 -1.191406 4.6875 -1.265625 C 4.894531 -1.347656 5.066406 -1.457031 5.203125 -1.59375 C 5.335938 -1.738281 5.40625 -1.921875 5.40625 -2.140625 C 5.40625 -2.378906 5.304688 -2.554688 5.109375 -2.671875 C 4.910156 -2.785156 4.660156 -2.863281 4.359375 -2.90625 C 4.054688 -2.957031 3.734375 -2.992188 3.390625 -3.015625 C 3.015625 -3.046875 2.632812 -3.085938 2.25 -3.140625 C 1.863281 -3.203125 1.507812 -3.300781 1.1875 -3.4375 C 0.875 -3.570312 0.617188 -3.765625 0.421875 -4.015625 C 0.234375 -4.273438 0.140625 -4.617188 0.140625 -5.046875 C 0.140625 -5.429688 0.234375 -5.757812 0.421875 -6.03125 C 0.617188 -6.3125 0.875 -6.535156 1.1875 -6.703125 C 1.507812 -6.878906 1.851562 -7.007812 2.21875 -7.09375 C 2.582031 -7.1875 2.9375 -7.234375 3.28125 -7.234375 C 3.664062 -7.234375 4.070312 -7.1875 4.5 -7.09375 C 4.925781 -7 5.316406 -6.835938 5.671875 -6.609375 C 6.023438 -6.390625 6.285156 -6.078125 6.453125 -5.671875 C 6.515625 -5.453125 6.472656 -5.273438 6.328125 -5.140625 C 6.179688 -5.003906 6.015625 -4.9375 5.828125 -4.9375 C 5.703125 -4.9375 5.582031 -4.960938 5.46875 -5.015625 C 5.363281 -5.078125 5.289062 -5.15625 5.25 -5.25 C 5.15625 -5.476562 5 -5.648438 4.78125 -5.765625 C 4.5625 -5.878906 4.316406 -5.953125 4.046875 -5.984375 C 3.773438 -6.015625 3.523438 -6.03125 3.296875 -6.03125 C 3.148438 -6.03125 2.972656 -6.015625 2.765625 -5.984375 C 2.554688 -5.953125 2.351562 -5.898438 2.15625 -5.828125 C 1.96875 -5.753906 1.804688 -5.648438 1.671875 -5.515625 C 1.546875 -5.390625 1.484375 -5.226562 1.484375 -5.03125 C 1.484375 -4.800781 1.578125 -4.625 1.765625 -4.5 C 1.953125 -4.382812 2.195312 -4.300781 2.5 -4.25 C 2.8125 -4.207031 3.148438 -4.171875 3.515625 -4.140625 C 3.898438 -4.109375 4.285156 -4.066406 4.671875 -4.015625 C 5.054688 -3.960938 5.40625 -3.875 5.71875 -3.75 C 6.03125 -3.632812 6.28125 -3.453125 6.46875 -3.203125 C 6.65625 -2.953125 6.75 -2.601562 6.75 -2.15625 C 6.75 -1.707031 6.640625 -1.335938 6.421875 -1.046875 C 6.210938 -0.753906 5.9375 -0.519531 5.59375 -0.34375 C 5.25 -0.175781 4.882812 -0.0625 4.5 0 C 4.113281 0.0703125 3.742188 0.109375 3.390625 0.109375 C 3.097656 0.109375 2.78125 0.078125 2.4375 0.015625 C 2.101562 -0.0351562 1.769531 -0.128906 1.4375 -0.265625 C 1.113281 -0.398438 0.828125 -0.582031 0.578125 -0.8125 C 0.335938 -1.039062 0.171875 -1.332031 0.078125 -1.6875 Z M 0.078125 -1.6875 "/></g></g></g><g fill="#ffffff" fill-opacity="1"><g transform="translate(146.263819, 10.513255)"><g><path d="M 5.890625 -7.109375 C 6.046875 -7.109375 6.191406 -7.0625 6.328125 -6.96875 C 6.472656 -6.875 6.546875 -6.726562 6.546875 -6.53125 L 6.546875 -0.609375 C 6.546875 -0.398438 6.472656 -0.242188 6.328125 -0.140625 C 6.191406 -0.046875 6.046875 0 5.890625 0 C 5.722656 0 5.570312 -0.046875 5.4375 -0.140625 C 5.3125 -0.242188 5.25 -0.398438 5.25 -0.609375 L 5.25 -2.90625 L 1.90625 -2.90625 L 1.90625 -0.609375 C 1.90625 -0.398438 1.835938 -0.242188 1.703125 -0.140625 C 1.578125 -0.046875 1.4375 0 1.28125 0 C 1.113281 0 0.960938 -0.0507812 0.828125 -0.15625 C 0.691406 -0.257812 0.625 -0.410156 0.625 -0.609375 L 0.625 -6.53125 C 0.625 -6.726562 0.6875 -6.875 0.8125 -6.96875 C 0.9375 -7.0625 1.082031 -7.109375 1.25 -7.109375 C 1.414062 -7.109375 1.566406 -7.0625 1.703125 -6.96875 C 1.835938 -6.875 1.90625 -6.726562 1.90625 -6.53125 L 1.90625 -3.984375 L 5.25 -3.984375 L 5.25 -6.53125 C 5.25 -6.726562 5.3125 -6.875 5.4375 -6.96875 C 5.570312 -7.0625 5.722656 -7.109375 5.890625 -7.109375 Z M 5.890625 -7.109375 "/></g></g></g><g fill="#ffffff" fill-opacity="1"><g transform="translate(158.112071, 10.513255)"><g><path d="M 7.546875 -3.546875 C 7.546875 -2.816406 7.394531 -2.175781 7.09375 -1.625 C 6.789062 -1.070312 6.363281 -0.644531 5.8125 -0.34375 C 5.269531 -0.0390625 4.632812 0.109375 3.90625 0.109375 C 3.175781 0.109375 2.535156 -0.0390625 1.984375 -0.34375 C 1.429688 -0.644531 1.003906 -1.070312 0.703125 -1.625 C 0.398438 -2.175781 0.25 -2.816406 0.25 -3.546875 C 0.25 -4.285156 0.398438 -4.929688 0.703125 -5.484375 C 1.003906 -6.035156 1.429688 -6.460938 1.984375 -6.765625 C 2.535156 -7.078125 3.175781 -7.234375 3.90625 -7.234375 C 4.632812 -7.234375 5.269531 -7.078125 5.8125 -6.765625 C 6.363281 -6.460938 6.789062 -6.035156 7.09375 -5.484375 C 7.394531 -4.929688 7.546875 -4.285156 7.546875 -3.546875 Z M 3.90625 -1.03125 C 4.375 -1.03125 4.78125 -1.132812 5.125 -1.34375 C 5.476562 -1.5625 5.75 -1.859375 5.9375 -2.234375 C 6.132812 -2.609375 6.234375 -3.046875 6.234375 -3.546875 C 6.234375 -4.054688 6.132812 -4.5 5.9375 -4.875 C 5.75 -5.257812 5.476562 -5.554688 5.125 -5.765625 C 4.78125 -5.984375 4.375 -6.09375 3.90625 -6.09375 C 3.4375 -6.09375 3.023438 -5.984375 2.671875 -5.765625 C 2.316406 -5.554688 2.039062 -5.257812 1.84375 -4.875 C 1.65625 -4.5 1.5625 -4.054688 1.5625 -3.546875 C 1.5625 -3.046875 1.65625 -2.609375 1.84375 -2.234375 C 2.039062 -1.859375 2.316406 -1.5625 2.671875 -1.34375 C 3.023438 -1.132812 3.4375 -1.03125 3.90625 -1.03125 Z M 3.90625 -1.03125 "/></g></g></g><g fill="#ffffff" fill-opacity="1"><g transform="translate(170.65261, 10.513255)"><g><path d="M 1.9375 -1.984375 L 1.9375 -0.5625 C 1.9375 -0.375 1.863281 -0.234375 1.71875 -0.140625 C 1.582031 -0.046875 1.4375 0 1.28125 0 C 1.113281 0 0.960938 -0.046875 0.828125 -0.140625 C 0.703125 -0.234375 0.640625 -0.375 0.640625 -0.5625 L 0.640625 -6.53125 C 0.640625 -6.707031 0.703125 -6.847656 0.828125 -6.953125 C 0.960938 -7.054688 1.117188 -7.109375 1.296875 -7.109375 L 3.578125 -7.109375 C 4.191406 -7.109375 4.71875 -7 5.15625 -6.78125 C 5.601562 -6.5625 5.941406 -6.253906 6.171875 -5.859375 C 6.398438 -5.472656 6.515625 -5.015625 6.515625 -4.484375 C 6.515625 -3.734375 6.253906 -3.128906 5.734375 -2.671875 C 5.210938 -2.210938 4.484375 -1.984375 3.546875 -1.984375 Z M 1.9375 -6.015625 L 1.9375 -3.078125 L 3.546875 -3.078125 C 4.097656 -3.078125 4.515625 -3.207031 4.796875 -3.46875 C 5.085938 -3.726562 5.234375 -4.066406 5.234375 -4.484375 C 5.234375 -4.953125 5.085938 -5.320312 4.796875 -5.59375 C 4.515625 -5.875 4.113281 -6.015625 3.59375 -6.015625 Z M 1.9375 -6.015625 "/></g></g></g><g fill="#ffffff" fill-opacity="1"><g transform="translate(84.41701, 26.061931)"><g><path d="M 3.8125 -7.109375 C 4.082031 -7.109375 4.375 -7.082031 4.6875 -7.03125 C 5 -6.988281 5.296875 -6.898438 5.578125 -6.765625 C 5.867188 -6.628906 6.101562 -6.429688 6.28125 -6.171875 C 6.46875 -5.910156 6.5625 -5.570312 6.5625 -5.15625 C 6.5625 -4.914062 6.503906 -4.671875 6.390625 -4.421875 C 6.273438 -4.171875 6.113281 -3.984375 5.90625 -3.859375 C 6.289062 -3.703125 6.578125 -3.476562 6.765625 -3.1875 C 6.953125 -2.894531 7.046875 -2.550781 7.046875 -2.15625 C 7.046875 -1.726562 6.957031 -1.375 6.78125 -1.09375 C 6.613281 -0.8125 6.382812 -0.585938 6.09375 -0.421875 C 5.800781 -0.265625 5.476562 -0.15625 5.125 -0.09375 C 4.769531 -0.03125 4.410156 0 4.046875 0 L 1.3125 0 C 1.132812 0 0.976562 -0.0546875 0.84375 -0.171875 C 0.71875 -0.285156 0.65625 -0.425781 0.65625 -0.59375 L 0.65625 -6.53125 C 0.65625 -6.695312 0.71875 -6.832031 0.84375 -6.9375 C 0.976562 -7.050781 1.132812 -7.109375 1.3125 -7.109375 Z M 3.8125 -6.015625 L 1.953125 -6.015625 L 1.953125 -4.28125 L 3.84375 -4.28125 C 4.21875 -4.28125 4.546875 -4.347656 4.828125 -4.484375 C 5.117188 -4.617188 5.265625 -4.84375 5.265625 -5.15625 C 5.265625 -5.40625 5.179688 -5.585938 5.015625 -5.703125 C 4.847656 -5.828125 4.648438 -5.910156 4.421875 -5.953125 C 4.203125 -5.992188 4 -6.015625 3.8125 -6.015625 Z M 4.375 -3.171875 L 1.953125 -3.171875 L 1.953125 -1.109375 L 4.046875 -1.109375 C 4.316406 -1.109375 4.582031 -1.132812 4.84375 -1.1875 C 5.101562 -1.238281 5.316406 -1.335938 5.484375 -1.484375 C 5.648438 -1.640625 5.734375 -1.863281 5.734375 -2.15625 C 5.734375 -2.5 5.597656 -2.753906 5.328125 -2.921875 C 5.066406 -3.085938 4.75 -3.171875 4.375 -3.171875 Z M 4.375 -3.171875 "/></g></g></g><g fill="#ffffff" fill-opacity="1"><g transform="translate(96.309927, 26.061931)"><g><path d="M 6.453125 -1.09375 C 6.617188 -0.914062 6.695312 -0.742188 6.6875 -0.578125 C 6.6875 -0.410156 6.625 -0.269531 6.5 -0.15625 C 6.382812 -0.0507812 6.242188 0 6.078125 0 C 5.921875 0.0078125 5.769531 -0.0625 5.625 -0.21875 L 3.625 -2.34375 L 1.9375 -2.34375 L 1.9375 -0.578125 C 1.9375 -0.390625 1.867188 -0.242188 1.734375 -0.140625 C 1.597656 -0.046875 1.453125 0 1.296875 0 C 1.128906 0 0.976562 -0.046875 0.84375 -0.140625 C 0.707031 -0.242188 0.640625 -0.382812 0.640625 -0.5625 L 0.640625 -6.53125 C 0.640625 -6.707031 0.703125 -6.847656 0.828125 -6.953125 C 0.953125 -7.054688 1.109375 -7.109375 1.296875 -7.109375 L 3.78125 -7.109375 C 4.457031 -7.109375 5.019531 -7 5.46875 -6.78125 C 5.914062 -6.570312 6.25 -6.285156 6.46875 -5.921875 C 6.6875 -5.554688 6.796875 -5.148438 6.796875 -4.703125 C 6.796875 -4.179688 6.65625 -3.722656 6.375 -3.328125 C 6.101562 -2.941406 5.679688 -2.664062 5.109375 -2.5 Z M 1.9375 -3.4375 L 3.796875 -3.4375 C 4.390625 -3.4375 4.820312 -3.554688 5.09375 -3.796875 C 5.375 -4.046875 5.507812 -4.34375 5.5 -4.6875 C 5.488281 -5.0625 5.332031 -5.367188 5.03125 -5.609375 C 4.738281 -5.859375 4.328125 -5.984375 3.796875 -5.984375 L 1.9375 -5.984375 Z M 1.9375 -3.4375 "/></g></g></g><g fill="#ffffff" fill-opacity="1"><g transform="translate(107.867873, 26.061931)"><g><path d="M 6.0625 -6.53125 C 6.0625 -6.726562 6.128906 -6.875 6.265625 -6.96875 C 6.398438 -7.0625 6.550781 -7.109375 6.71875 -7.109375 C 6.882812 -7.109375 7.03125 -7.0625 7.15625 -6.96875 C 7.289062 -6.875 7.359375 -6.726562 7.359375 -6.53125 L 7.359375 -3.140625 C 7.359375 -2.492188 7.21875 -1.925781 6.9375 -1.4375 C 6.664062 -0.945312 6.273438 -0.566406 5.765625 -0.296875 C 5.265625 -0.0234375 4.675781 0.109375 4 0.109375 C 3.332031 0.109375 2.742188 -0.0234375 2.234375 -0.296875 C 1.722656 -0.566406 1.328125 -0.945312 1.046875 -1.4375 C 0.773438 -1.925781 0.640625 -2.492188 0.640625 -3.140625 L 0.640625 -6.5625 C 0.640625 -6.75 0.703125 -6.882812 0.828125 -6.96875 C 0.960938 -7.0625 1.113281 -7.109375 1.28125 -7.109375 C 1.457031 -7.109375 1.613281 -7.0625 1.75 -6.96875 C 1.882812 -6.882812 1.953125 -6.742188 1.953125 -6.546875 L 1.953125 -3.140625 C 1.953125 -2.523438 2.140625 -2.023438 2.515625 -1.640625 C 2.890625 -1.253906 3.378906 -1.0625 3.984375 -1.0625 C 4.609375 -1.0625 5.109375 -1.253906 5.484375 -1.640625 C 5.867188 -2.023438 6.0625 -2.523438 6.0625 -3.140625 Z M 6.0625 -6.53125 "/></g></g></g><g fill="#ffffff" fill-opacity="1"><g transform="translate(120.564724, 26.061931)"><g><path d="M 5.390625 -6.5625 C 5.390625 -6.75 5.460938 -6.882812 5.609375 -6.96875 C 5.753906 -7.0625 5.90625 -7.109375 6.0625 -7.109375 C 6.238281 -7.109375 6.390625 -7.066406 6.515625 -6.984375 C 6.648438 -6.898438 6.71875 -6.757812 6.71875 -6.5625 L 6.71875 -0.671875 C 6.71875 -0.441406 6.640625 -0.269531 6.484375 -0.15625 C 6.328125 -0.0507812 6.15625 0 5.96875 0 C 5.84375 0 5.71875 -0.0234375 5.59375 -0.078125 C 5.46875 -0.140625 5.367188 -0.222656 5.296875 -0.328125 L 1.875 -4.71875 L 1.921875 -4.09375 L 1.921875 -0.59375 C 1.921875 -0.382812 1.851562 -0.234375 1.71875 -0.140625 C 1.582031 -0.046875 1.429688 0 1.265625 0 C 1.085938 0 0.929688 -0.046875 0.796875 -0.140625 C 0.660156 -0.234375 0.59375 -0.382812 0.59375 -0.59375 L 0.59375 -6.4375 C 0.59375 -6.65625 0.660156 -6.820312 0.796875 -6.9375 C 0.929688 -7.050781 1.09375 -7.109375 1.28125 -7.109375 C 1.414062 -7.109375 1.53125 -7.082031 1.625 -7.03125 C 1.726562 -6.976562 1.828125 -6.894531 1.921875 -6.78125 L 5.421875 -2.21875 L 5.390625 -2.96875 Z M 5.390625 -6.5625 "/></g></g></g><g fill="#ffffff" fill-opacity="1"><g transform="translate(132.502306, 26.061931)"><g><path d="M 3.90625 -7.234375 C 4.457031 -7.234375 4.96875 -7.148438 5.4375 -6.984375 C 5.90625 -6.816406 6.320312 -6.53125 6.6875 -6.125 C 6.84375 -5.945312 6.910156 -5.78125 6.890625 -5.625 C 6.867188 -5.46875 6.796875 -5.34375 6.671875 -5.25 C 6.546875 -5.15625 6.398438 -5.109375 6.234375 -5.109375 C 6.066406 -5.117188 5.910156 -5.203125 5.765625 -5.359375 C 5.484375 -5.671875 5.1875 -5.867188 4.875 -5.953125 C 4.570312 -6.046875 4.25 -6.09375 3.90625 -6.09375 C 3.425781 -6.09375 3.007812 -5.988281 2.65625 -5.78125 C 2.3125 -5.570312 2.039062 -5.285156 1.84375 -4.921875 C 1.644531 -4.554688 1.546875 -4.128906 1.546875 -3.640625 C 1.546875 -3.117188 1.644531 -2.660156 1.84375 -2.265625 C 2.039062 -1.867188 2.320312 -1.5625 2.6875 -1.34375 C 3.050781 -1.132812 3.472656 -1.03125 3.953125 -1.03125 C 4.304688 -1.03125 4.65625 -1.117188 5 -1.296875 C 5.351562 -1.472656 5.632812 -1.6875 5.84375 -1.9375 C 5.988281 -2.125 6.148438 -2.226562 6.328125 -2.25 C 6.503906 -2.28125 6.65625 -2.25 6.78125 -2.15625 C 6.914062 -2.070312 6.992188 -1.953125 7.015625 -1.796875 C 7.046875 -1.640625 6.992188 -1.46875 6.859375 -1.28125 C 6.660156 -0.988281 6.398438 -0.738281 6.078125 -0.53125 C 5.753906 -0.320312 5.40625 -0.160156 5.03125 -0.046875 C 4.664062 0.0546875 4.300781 0.109375 3.9375 0.109375 C 3.195312 0.109375 2.550781 -0.046875 2 -0.359375 C 1.445312 -0.671875 1.015625 -1.109375 0.703125 -1.671875 C 0.398438 -2.234375 0.25 -2.890625 0.25 -3.640625 C 0.25 -4.359375 0.410156 -4.984375 0.734375 -5.515625 C 1.054688 -6.054688 1.492188 -6.476562 2.046875 -6.78125 C 2.597656 -7.082031 3.21875 -7.234375 3.90625 -7.234375 Z M 3.90625 -7.234375 "/></g></g></g><g fill="#ffffff" fill-opacity="1"><g transform="translate(144.171912, 26.061931)"><g><path d="M 5.890625 -7.109375 C 6.046875 -7.109375 6.191406 -7.0625 6.328125 -6.96875 C 6.472656 -6.875 6.546875 -6.726562 6.546875 -6.53125 L 6.546875 -0.609375 C 6.546875 -0.398438 6.472656 -0.242188 6.328125 -0.140625 C 6.191406 -0.046875 6.046875 0 5.890625 0 C 5.722656 0 5.570312 -0.046875 5.4375 -0.140625 C 5.3125 -0.242188 5.25 -0.398438 5.25 -0.609375 L 5.25 -2.90625 L 1.90625 -2.90625 L 1.90625 -0.609375 C 1.90625 -0.398438 1.835938 -0.242188 1.703125 -0.140625 C 1.578125 -0.046875 1.4375 0 1.28125 0 C 1.113281 0 0.960938 -0.0507812 0.828125 -0.15625 C 0.691406 -0.257812 0.625 -0.410156 0.625 -0.609375 L 0.625 -6.53125 C 0.625 -6.726562 0.6875 -6.875 0.8125 -6.96875 C 0.9375 -7.0625 1.082031 -7.109375 1.25 -7.109375 C 1.414062 -7.109375 1.566406 -7.0625 1.703125 -6.96875 C 1.835938 -6.875 1.90625 -6.726562 1.90625 -6.53125 L 1.90625 -3.984375 L 5.25 -3.984375 L 5.25 -6.53125 C 5.25 -6.726562 5.3125 -6.875 5.4375 -6.96875 C 5.570312 -7.0625 5.722656 -7.109375 5.890625 -7.109375 Z M 5.890625 -7.109375 "/></g></g></g><g fill="#ffffff" fill-opacity="1"><g transform="translate(0.540831, 41.610608)"><g><path d="M 1.9375 -1.984375 L 1.9375 -0.5625 C 1.9375 -0.375 1.863281 -0.234375 1.71875 -0.140625 C 1.582031 -0.046875 1.4375 0 1.28125 0 C 1.113281 0 0.960938 -0.046875 0.828125 -0.140625 C 0.703125 -0.234375 0.640625 -0.375 0.640625 -0.5625 L 0.640625 -6.53125 C 0.640625 -6.707031 0.703125 -6.847656 0.828125 -6.953125 C 0.960938 -7.054688 1.117188 -7.109375 1.296875 -7.109375 L 3.578125 -7.109375 C 4.191406 -7.109375 4.71875 -7 5.15625 -6.78125 C 5.601562 -6.5625 5.941406 -6.253906 6.171875 -5.859375 C 6.398438 -5.472656 6.515625 -5.015625 6.515625 -4.484375 C 6.515625 -3.734375 6.253906 -3.128906 5.734375 -2.671875 C 5.210938 -2.210938 4.484375 -1.984375 3.546875 -1.984375 Z M 1.9375 -6.015625 L 1.9375 -3.078125 L 3.546875 -3.078125 C 4.097656 -3.078125 4.515625 -3.207031 4.796875 -3.46875 C 5.085938 -3.726562 5.234375 -4.066406 5.234375 -4.484375 C 5.234375 -4.953125 5.085938 -5.320312 4.796875 -5.59375 C 4.515625 -5.875 4.113281 -6.015625 3.59375 -6.015625 Z M 1.9375 -6.015625 "/></g></g></g><g fill="#ffffff" fill-opacity="1"><g transform="translate(11.908958, 41.610608)"><g><path d="M 5.78125 -7.109375 C 6 -7.109375 6.164062 -7.050781 6.28125 -6.9375 C 6.394531 -6.820312 6.453125 -6.6875 6.453125 -6.53125 C 6.453125 -6.394531 6.394531 -6.265625 6.28125 -6.140625 C 6.164062 -6.023438 6 -5.96875 5.78125 -5.96875 L 3.703125 -5.96875 L 3.71875 -0.59375 C 3.71875 -0.394531 3.644531 -0.242188 3.5 -0.140625 C 3.351562 -0.046875 3.207031 0 3.0625 0 C 2.90625 0 2.753906 -0.046875 2.609375 -0.140625 C 2.472656 -0.242188 2.40625 -0.394531 2.40625 -0.59375 L 2.40625 -5.96875 L 0.34375 -5.96875 C 0.125 -5.96875 -0.03125 -6.023438 -0.125 -6.140625 C -0.226562 -6.265625 -0.28125 -6.394531 -0.28125 -6.53125 C -0.28125 -6.6875 -0.226562 -6.820312 -0.125 -6.9375 C -0.03125 -7.050781 0.125 -7.109375 0.34375 -7.109375 Z M 5.78125 -7.109375 "/></g></g></g><g fill="#ffffff" fill-opacity="1"><g transform="translate(22.70763, 41.610608)"><g><path d="M 0.5 -6.515625 C 0.5 -6.722656 0.566406 -6.875 0.703125 -6.96875 C 0.835938 -7.0625 0.988281 -7.109375 1.15625 -7.109375 C 1.3125 -7.109375 1.457031 -7.0625 1.59375 -6.96875 C 1.738281 -6.875 1.8125 -6.722656 1.8125 -6.515625 L 1.8125 -0.5625 C 1.8125 -0.382812 1.738281 -0.242188 1.59375 -0.140625 C 1.457031 -0.046875 1.3125 0 1.15625 0 C 0.988281 0 0.835938 -0.046875 0.703125 -0.140625 C 0.566406 -0.234375 0.5 -0.375 0.5 -0.5625 Z M 0.5 -6.515625 "/></g></g></g><g fill="#ffffff" fill-opacity="1"><g transform="translate(29.386137, 41.610608)"><g><path d="M 5.78125 -7.109375 C 6 -7.109375 6.164062 -7.050781 6.28125 -6.9375 C 6.394531 -6.820312 6.453125 -6.6875 6.453125 -6.53125 C 6.453125 -6.394531 6.394531 -6.265625 6.28125 -6.140625 C 6.164062 -6.023438 6 -5.96875 5.78125 -5.96875 L 3.703125 -5.96875 L 3.71875 -0.59375 C 3.71875 -0.394531 3.644531 -0.242188 3.5 -0.140625 C 3.351562 -0.046875 3.207031 0 3.0625 0 C 2.90625 0 2.753906 -0.046875 2.609375 -0.140625 C 2.472656 -0.242188 2.40625 -0.394531 2.40625 -0.59375 L 2.40625 -5.96875 L 0.34375 -5.96875 C 0.125 -5.96875 -0.03125 -6.023438 -0.125 -6.140625 C -0.226562 -6.265625 -0.28125 -6.394531 -0.28125 -6.53125 C -0.28125 -6.6875 -0.226562 -6.820312 -0.125 -6.9375 C -0.03125 -7.050781 0.125 -7.109375 0.34375 -7.109375 Z M 5.78125 -7.109375 "/></g></g></g><g fill="#ffffff" fill-opacity="1"><g transform="translate(40.184809, 41.610608)"><g/></g></g><g fill="#ffffff" fill-opacity="1"><g transform="translate(47.455102, 41.610608)"><g><path d="M 3.296875 -7.109375 C 3.972656 -7.109375 4.5625 -6.957031 5.0625 -6.65625 C 5.570312 -6.363281 5.96875 -5.953125 6.25 -5.421875 C 6.539062 -4.890625 6.6875 -4.265625 6.6875 -3.546875 C 6.6875 -2.835938 6.539062 -2.210938 6.25 -1.671875 C 5.96875 -1.140625 5.570312 -0.726562 5.0625 -0.4375 C 4.5625 -0.144531 3.972656 0 3.296875 0 L 1 0 C 0.789062 0 0.613281 -0.0625 0.46875 -0.1875 C 0.320312 -0.320312 0.25 -0.476562 0.25 -0.65625 L 0.25 -6.46875 C 0.25 -6.644531 0.320312 -6.796875 0.46875 -6.921875 C 0.613281 -7.046875 0.789062 -7.109375 1 -7.109375 Z M 3.296875 -1.109375 C 3.710938 -1.109375 4.078125 -1.207031 4.390625 -1.40625 C 4.710938 -1.613281 4.957031 -1.898438 5.125 -2.265625 C 5.300781 -2.628906 5.390625 -3.054688 5.390625 -3.546875 C 5.390625 -4.046875 5.300781 -4.476562 5.125 -4.84375 C 4.957031 -5.21875 4.710938 -5.503906 4.390625 -5.703125 C 4.078125 -5.910156 3.710938 -6.015625 3.296875 -6.015625 L 1.53125 -6.015625 L 1.53125 -1.109375 Z M 3.296875 -1.109375 "/></g></g></g><g fill="#ffffff" fill-opacity="1"><g transform="translate(59.013048, 41.610608)"><g><path d="M 5.828125 -1.109375 C 6.015625 -1.109375 6.160156 -1.046875 6.265625 -0.921875 C 6.378906 -0.804688 6.4375 -0.675781 6.4375 -0.53125 C 6.4375 -0.394531 6.382812 -0.269531 6.28125 -0.15625 C 6.1875 -0.0507812 6.035156 0 5.828125 0 L 1.390625 0 C 1.160156 0 0.976562 -0.0625 0.84375 -0.1875 C 0.707031 -0.320312 0.640625 -0.484375 0.640625 -0.671875 L 0.640625 -6.453125 C 0.640625 -6.628906 0.707031 -6.78125 0.84375 -6.90625 C 0.976562 -7.039062 1.160156 -7.109375 1.390625 -7.109375 L 5.828125 -7.109375 C 6.023438 -7.109375 6.171875 -7.054688 6.265625 -6.953125 C 6.359375 -6.847656 6.40625 -6.722656 6.40625 -6.578125 C 6.40625 -6.441406 6.351562 -6.3125 6.25 -6.1875 C 6.15625 -6.070312 6.015625 -6.015625 5.828125 -6.015625 L 1.921875 -6.015625 L 1.921875 -4.0625 L 5.625 -4.0625 C 5.8125 -4.0625 5.953125 -4.003906 6.046875 -3.890625 C 6.148438 -3.773438 6.203125 -3.648438 6.203125 -3.515625 C 6.203125 -3.378906 6.148438 -3.253906 6.046875 -3.140625 C 5.953125 -3.023438 5.8125 -2.96875 5.625 -2.96875 L 1.921875 -2.96875 L 1.921875 -1.109375 Z M 5.828125 -1.109375 "/></g></g></g><g fill="#ffffff" fill-opacity="1"><g transform="translate(70.37001, 41.610608)"><g><path d="M 4.21875 -6 L 2.453125 -6 C 2.242188 -6 2.078125 -6.054688 1.953125 -6.171875 C 1.835938 -6.285156 1.78125 -6.414062 1.78125 -6.5625 C 1.78125 -6.695312 1.835938 -6.820312 1.953125 -6.9375 C 2.078125 -7.050781 2.242188 -7.109375 2.453125 -7.109375 L 4.8125 -7.109375 C 4.988281 -7.109375 5.132812 -7.054688 5.25 -6.953125 C 5.375 -6.847656 5.445312 -6.722656 5.46875 -6.578125 L 5.46875 -2.546875 C 5.46875 -2.015625 5.34375 -1.546875 5.09375 -1.140625 C 4.84375 -0.742188 4.492188 -0.4375 4.046875 -0.21875 C 3.609375 0 3.085938 0.109375 2.484375 0.109375 C 1.992188 0.109375 1.535156 0.00390625 1.109375 -0.203125 C 0.691406 -0.421875 0.359375 -0.707031 0.109375 -1.0625 C -0.140625 -1.425781 -0.265625 -1.835938 -0.265625 -2.296875 C -0.265625 -2.472656 -0.195312 -2.617188 -0.0625 -2.734375 C 0.0703125 -2.859375 0.21875 -2.921875 0.375 -2.921875 C 0.550781 -2.921875 0.703125 -2.875 0.828125 -2.78125 C 0.953125 -2.6875 1.019531 -2.535156 1.03125 -2.328125 C 1.0625 -1.929688 1.207031 -1.609375 1.46875 -1.359375 C 1.738281 -1.117188 2.078125 -1 2.484375 -1 C 3.003906 -1 3.421875 -1.140625 3.734375 -1.421875 C 4.054688 -1.710938 4.21875 -2.085938 4.21875 -2.546875 Z M 4.21875 -6 "/></g></g></g><g fill="#ffffff" fill-opacity="1"><g transform="translate(81.05702, 41.610608)"><g><path d="M 1 -5.421875 C 0.9375 -5.296875 0.851562 -5.207031 0.75 -5.15625 C 0.65625 -5.101562 0.554688 -5.078125 0.453125 -5.078125 C 0.265625 -5.078125 0.113281 -5.160156 0 -5.328125 C -0.125 -5.492188 -0.15625 -5.675781 -0.09375 -5.875 L 0.328125 -6.875 C 0.390625 -7.007812 0.46875 -7.101562 0.5625 -7.15625 C 0.664062 -7.207031 0.78125 -7.234375 0.90625 -7.234375 C 1.039062 -7.234375 1.164062 -7.191406 1.28125 -7.109375 C 1.40625 -7.035156 1.488281 -6.9375 1.53125 -6.8125 C 1.570312 -6.6875 1.550781 -6.546875 1.46875 -6.390625 L 1.484375 -6.40625 Z M 1 -5.421875 "/></g></g></g><g fill="#ffffff" fill-opacity="1"><g transform="translate(86.775277, 41.610608)"><g/></g></g><g fill="#ffffff" fill-opacity="1"><g transform="translate(94.045565, 41.610608)"><g><path d="M 1.140625 -4.40625 C 1.460938 -4.40625 1.734375 -4.300781 1.953125 -4.09375 C 2.179688 -3.882812 2.296875 -3.628906 2.296875 -3.328125 C 2.296875 -3.035156 2.179688 -2.78125 1.953125 -2.5625 C 1.734375 -2.351562 1.460938 -2.25 1.140625 -2.25 C 0.828125 -2.25 0.554688 -2.351562 0.328125 -2.5625 C 0.109375 -2.78125 0 -3.035156 0 -3.328125 C 0 -3.628906 0.109375 -3.882812 0.328125 -4.09375 C 0.554688 -4.300781 0.828125 -4.40625 1.140625 -4.40625 Z M 1.140625 -4.40625 "/></g></g></g><g fill="#ffffff" fill-opacity="1"><g transform="translate(100.880391, 41.610608)"><g/></g></g><g fill="#ffffff" fill-opacity="1"><g transform="translate(108.15068, 41.610608)"><g><path d="M 3.296875 -7.109375 C 3.972656 -7.109375 4.5625 -6.957031 5.0625 -6.65625 C 5.570312 -6.363281 5.96875 -5.953125 6.25 -5.421875 C 6.539062 -4.890625 6.6875 -4.265625 6.6875 -3.546875 C 6.6875 -2.835938 6.539062 -2.210938 6.25 -1.671875 C 5.96875 -1.140625 5.570312 -0.726562 5.0625 -0.4375 C 4.5625 -0.144531 3.972656 0 3.296875 0 L 1 0 C 0.789062 0 0.613281 -0.0625 0.46875 -0.1875 C 0.320312 -0.320312 0.25 -0.476562 0.25 -0.65625 L 0.25 -6.46875 C 0.25 -6.644531 0.320312 -6.796875 0.46875 -6.921875 C 0.613281 -7.046875 0.789062 -7.109375 1 -7.109375 Z M 3.296875 -1.109375 C 3.710938 -1.109375 4.078125 -1.207031 4.390625 -1.40625 C 4.710938 -1.613281 4.957031 -1.898438 5.125 -2.265625 C 5.300781 -2.628906 5.390625 -3.054688 5.390625 -3.546875 C 5.390625 -4.046875 5.300781 -4.476562 5.125 -4.84375 C 4.957031 -5.21875 4.710938 -5.503906 4.390625 -5.703125 C 4.078125 -5.910156 3.710938 -6.015625 3.296875 -6.015625 L 1.53125 -6.015625 L 1.53125 -1.109375 Z M 3.296875 -1.109375 "/></g></g></g><g fill="#ffffff" fill-opacity="1"><g transform="translate(119.708629, 41.610608)"><g><path d="M 5.828125 -1.109375 C 6.015625 -1.109375 6.160156 -1.046875 6.265625 -0.921875 C 6.378906 -0.804688 6.4375 -0.675781 6.4375 -0.53125 C 6.4375 -0.394531 6.382812 -0.269531 6.28125 -0.15625 C 6.1875 -0.0507812 6.035156 0 5.828125 0 L 1.390625 0 C 1.160156 0 0.976562 -0.0625 0.84375 -0.1875 C 0.707031 -0.320312 0.640625 -0.484375 0.640625 -0.671875 L 0.640625 -6.453125 C 0.640625 -6.628906 0.707031 -6.78125 0.84375 -6.90625 C 0.976562 -7.039062 1.160156 -7.109375 1.390625 -7.109375 L 5.828125 -7.109375 C 6.023438 -7.109375 6.171875 -7.054688 6.265625 -6.953125 C 6.359375 -6.847656 6.40625 -6.722656 6.40625 -6.578125 C 6.40625 -6.441406 6.351562 -6.3125 6.25 -6.1875 C 6.15625 -6.070312 6.015625 -6.015625 5.828125 -6.015625 L 1.921875 -6.015625 L 1.921875 -4.0625 L 5.625 -4.0625 C 5.8125 -4.0625 5.953125 -4.003906 6.046875 -3.890625 C 6.148438 -3.773438 6.203125 -3.648438 6.203125 -3.515625 C 6.203125 -3.378906 6.148438 -3.253906 6.046875 -3.140625 C 5.953125 -3.023438 5.8125 -2.96875 5.625 -2.96875 L 1.921875 -2.96875 L 1.921875 -1.109375 Z M 5.828125 -1.109375 "/></g></g></g><g fill="#ffffff" fill-opacity="1"><g transform="translate(131.065592, 41.610608)"><g><path d="M 4.21875 -6 L 2.453125 -6 C 2.242188 -6 2.078125 -6.054688 1.953125 -6.171875 C 1.835938 -6.285156 1.78125 -6.414062 1.78125 -6.5625 C 1.78125 -6.695312 1.835938 -6.820312 1.953125 -6.9375 C 2.078125 -7.050781 2.242188 -7.109375 2.453125 -7.109375 L 4.8125 -7.109375 C 4.988281 -7.109375 5.132812 -7.054688 5.25 -6.953125 C 5.375 -6.847656 5.445312 -6.722656 5.46875 -6.578125 L 5.46875 -2.546875 C 5.46875 -2.015625 5.34375 -1.546875 5.09375 -1.140625 C 4.84375 -0.742188 4.492188 -0.4375 4.046875 -0.21875 C 3.609375 0 3.085938 0.109375 2.484375 0.109375 C 1.992188 0.109375 1.535156 0.00390625 1.109375 -0.203125 C 0.691406 -0.421875 0.359375 -0.707031 0.109375 -1.0625 C -0.140625 -1.425781 -0.265625 -1.835938 -0.265625 -2.296875 C -0.265625 -2.472656 -0.195312 -2.617188 -0.0625 -2.734375 C 0.0703125 -2.859375 0.21875 -2.921875 0.375 -2.921875 C 0.550781 -2.921875 0.703125 -2.875 0.828125 -2.78125 C 0.953125 -2.6875 1.019531 -2.535156 1.03125 -2.328125 C 1.0625 -1.929688 1.207031 -1.609375 1.46875 -1.359375 C 1.738281 -1.117188 2.078125 -1 2.484375 -1 C 3.003906 -1 3.421875 -1.140625 3.734375 -1.421875 C 4.054688 -1.710938 4.21875 -2.085938 4.21875 -2.546875 Z M 4.21875 -6 "/></g></g></g><g fill="#ffffff" fill-opacity="1"><g transform="translate(141.752601, 41.610608)"><g><path d="M 1 -5.421875 C 0.9375 -5.296875 0.851562 -5.207031 0.75 -5.15625 C 0.65625 -5.101562 0.554688 -5.078125 0.453125 -5.078125 C 0.265625 -5.078125 0.113281 -5.160156 0 -5.328125 C -0.125 -5.492188 -0.15625 -5.675781 -0.09375 -5.875 L 0.328125 -6.875 C 0.390625 -7.007812 0.46875 -7.101562 0.5625 -7.15625 C 0.664062 -7.207031 0.78125 -7.234375 0.90625 -7.234375 C 1.039062 -7.234375 1.164062 -7.191406 1.28125 -7.109375 C 1.40625 -7.035156 1.488281 -6.9375 1.53125 -6.8125 C 1.570312 -6.6875 1.550781 -6.546875 1.46875 -6.390625 L 1.484375 -6.40625 Z M 1 -5.421875 "/></g></g></g><g fill="#ffffff" fill-opacity="1"><g transform="translate(147.470858, 41.610608)"><g/></g></g><g fill="#ffffff" fill-opacity="1"><g transform="translate(154.74114, 41.610608)"><g><path d="M 1.140625 -4.40625 C 1.460938 -4.40625 1.734375 -4.300781 1.953125 -4.09375 C 2.179688 -3.882812 2.296875 -3.628906 2.296875 -3.328125 C 2.296875 -3.035156 2.179688 -2.78125 1.953125 -2.5625 C 1.734375 -2.351562 1.460938 -2.25 1.140625 -2.25 C 0.828125 -2.25 0.554688 -2.351562 0.328125 -2.5625 C 0.109375 -2.78125 0 -3.035156 0 -3.328125 C 0 -3.628906 0.109375 -3.882812 0.328125 -4.09375 C 0.554688 -4.300781 0.828125 -4.40625 1.140625 -4.40625 Z M 1.140625 -4.40625 "/></g></g></g><g fill="#ffffff" fill-opacity="1"><g transform="translate(161.575978, 41.610608)"><g/></g></g><g fill="#ffffff" fill-opacity="1"><g transform="translate(168.846261, 41.610608)"><g><path d="M 6.859375 -1.71875 C 6.859375 -1.644531 6.847656 -1.566406 6.828125 -1.484375 C 6.804688 -1.398438 6.757812 -1.320312 6.6875 -1.25 C 6.46875 -0.988281 6.195312 -0.753906 5.875 -0.546875 C 5.550781 -0.335938 5.210938 -0.175781 4.859375 -0.0625 C 4.503906 0.0507812 4.148438 0.109375 3.796875 0.109375 C 3.054688 0.109375 2.414062 -0.046875 1.875 -0.359375 C 1.34375 -0.671875 0.925781 -1.109375 0.625 -1.671875 C 0.332031 -2.234375 0.195312 -2.882812 0.21875 -3.625 C 0.21875 -4.34375 0.363281 -4.972656 0.65625 -5.515625 C 0.957031 -6.054688 1.378906 -6.476562 1.921875 -6.78125 C 2.472656 -7.082031 3.109375 -7.234375 3.828125 -7.234375 C 4.316406 -7.234375 4.800781 -7.140625 5.28125 -6.953125 C 5.769531 -6.773438 6.175781 -6.515625 6.5 -6.171875 C 6.65625 -6.003906 6.722656 -5.835938 6.703125 -5.671875 C 6.691406 -5.503906 6.625 -5.367188 6.5 -5.265625 C 6.382812 -5.171875 6.238281 -5.128906 6.0625 -5.140625 C 5.882812 -5.148438 5.710938 -5.238281 5.546875 -5.40625 C 5.304688 -5.65625 5.035156 -5.835938 4.734375 -5.953125 C 4.441406 -6.066406 4.140625 -6.125 3.828125 -6.125 C 3.367188 -6.125 2.960938 -6.015625 2.609375 -5.796875 C 2.253906 -5.585938 1.976562 -5.289062 1.78125 -4.90625 C 1.59375 -4.53125 1.5 -4.09375 1.5 -3.59375 C 1.507812 -3.09375 1.609375 -2.644531 1.796875 -2.25 C 1.992188 -1.863281 2.265625 -1.5625 2.609375 -1.34375 C 2.953125 -1.125 3.351562 -1.015625 3.8125 -1.015625 C 4.132812 -1.015625 4.457031 -1.085938 4.78125 -1.234375 C 5.101562 -1.378906 5.375 -1.578125 5.59375 -1.828125 L 5.59375 -2.96875 L 3.96875 -2.96875 C 3.757812 -2.96875 3.601562 -3.023438 3.5 -3.140625 C 3.394531 -3.253906 3.34375 -3.378906 3.34375 -3.515625 C 3.34375 -3.660156 3.394531 -3.789062 3.5 -3.90625 C 3.601562 -4.019531 3.757812 -4.078125 3.96875 -4.078125 L 6.1875 -4.078125 C 6.445312 -4.078125 6.625 -4.019531 6.71875 -3.90625 C 6.8125 -3.800781 6.859375 -3.65625 6.859375 -3.46875 Z M 6.859375 -1.71875 "/></g></g></g><g fill="#ffffff" fill-opacity="1"><g transform="translate(180.94016, 41.610608)"><g><path d="M 7.546875 -3.546875 C 7.546875 -2.816406 7.394531 -2.175781 7.09375 -1.625 C 6.789062 -1.070312 6.363281 -0.644531 5.8125 -0.34375 C 5.269531 -0.0390625 4.632812 0.109375 3.90625 0.109375 C 3.175781 0.109375 2.535156 -0.0390625 1.984375 -0.34375 C 1.429688 -0.644531 1.003906 -1.070312 0.703125 -1.625 C 0.398438 -2.175781 0.25 -2.816406 0.25 -3.546875 C 0.25 -4.285156 0.398438 -4.929688 0.703125 -5.484375 C 1.003906 -6.035156 1.429688 -6.460938 1.984375 -6.765625 C 2.535156 -7.078125 3.175781 -7.234375 3.90625 -7.234375 C 4.632812 -7.234375 5.269531 -7.078125 5.8125 -6.765625 C 6.363281 -6.460938 6.789062 -6.035156 7.09375 -5.484375 C 7.394531 -4.929688 7.546875 -4.285156 7.546875 -3.546875 Z M 3.90625 -1.03125 C 4.375 -1.03125 4.78125 -1.132812 5.125 -1.34375 C 5.476562 -1.5625 5.75 -1.859375 5.9375 -2.234375 C 6.132812 -2.609375 6.234375 -3.046875 6.234375 -3.546875 C 6.234375 -4.054688 6.132812 -4.5 5.9375 -4.875 C 5.75 -5.257812 5.476562 -5.554688 5.125 -5.765625 C 4.78125 -5.984375 4.375 -6.09375 3.90625 -6.09375 C 3.4375 -6.09375 3.023438 -5.984375 2.671875 -5.765625 C 2.316406 -5.554688 2.039062 -5.257812 1.84375 -4.875 C 1.65625 -4.5 1.5625 -4.054688 1.5625 -3.546875 C 1.5625 -3.046875 1.65625 -2.609375 1.84375 -2.234375 C 2.039062 -1.859375 2.316406 -1.5625 2.671875 -1.34375 C 3.023438 -1.132812 3.4375 -1.03125 3.90625 -1.03125 Z M 3.90625 -1.03125 "/></g></g></g><g fill="#ffffff" fill-opacity="1"><g transform="translate(193.4807, 41.610608)"><g><path d="M 4.734375 -7.625 L 4.015625 -8.03125 L 3.296875 -7.625 C 3.160156 -7.539062 3.03125 -7.519531 2.90625 -7.5625 C 2.78125 -7.601562 2.679688 -7.675781 2.609375 -7.78125 C 2.535156 -7.882812 2.507812 -7.992188 2.53125 -8.109375 C 2.550781 -8.234375 2.640625 -8.347656 2.796875 -8.453125 L 3.71875 -9.03125 C 3.84375 -9.113281 3.941406 -9.15625 4.015625 -9.15625 C 4.097656 -9.15625 4.195312 -9.113281 4.3125 -9.03125 L 5.234375 -8.453125 C 5.390625 -8.347656 5.476562 -8.234375 5.5 -8.109375 C 5.519531 -7.992188 5.492188 -7.882812 5.421875 -7.78125 C 5.347656 -7.675781 5.25 -7.601562 5.125 -7.5625 C 5 -7.519531 4.867188 -7.539062 4.734375 -7.625 Z M 6.0625 -6.53125 C 6.0625 -6.726562 6.128906 -6.875 6.265625 -6.96875 C 6.398438 -7.0625 6.550781 -7.109375 6.71875 -7.109375 C 6.882812 -7.109375 7.03125 -7.0625 7.15625 -6.96875 C 7.289062 -6.875 7.359375 -6.726562 7.359375 -6.53125 L 7.359375 -3.140625 C 7.359375 -2.492188 7.21875 -1.925781 6.9375 -1.4375 C 6.664062 -0.945312 6.273438 -0.566406 5.765625 -0.296875 C 5.265625 -0.0234375 4.675781 0.109375 4 0.109375 C 3.332031 0.109375 2.742188 -0.0234375 2.234375 -0.296875 C 1.722656 -0.566406 1.328125 -0.945312 1.046875 -1.4375 C 0.773438 -1.925781 0.640625 -2.492188 0.640625 -3.140625 L 0.640625 -6.5625 C 0.640625 -6.75 0.703125 -6.882812 0.828125 -6.96875 C 0.960938 -7.0625 1.113281 -7.109375 1.28125 -7.109375 C 1.457031 -7.109375 1.613281 -7.0625 1.75 -6.96875 C 1.882812 -6.882812 1.953125 -6.742188 1.953125 -6.546875 L 1.953125 -3.140625 C 1.953125 -2.523438 2.140625 -2.023438 2.515625 -1.640625 C 2.890625 -1.253906 3.378906 -1.0625 3.984375 -1.0625 C 4.609375 -1.0625 5.109375 -1.253906 5.484375 -1.640625 C 5.867188 -2.023438 6.0625 -2.523438 6.0625 -3.140625 Z M 6.0625 -6.53125 "/></g></g></g><g fill="#ffffff" fill-opacity="1"><g transform="translate(206.177545, 41.610608)"><g><path d="M 5.78125 -7.109375 C 6 -7.109375 6.164062 -7.050781 6.28125 -6.9375 C 6.394531 -6.820312 6.453125 -6.6875 6.453125 -6.53125 C 6.453125 -6.394531 6.394531 -6.265625 6.28125 -6.140625 C 6.164062 -6.023438 6 -5.96875 5.78125 -5.96875 L 3.703125 -5.96875 L 3.71875 -0.59375 C 3.71875 -0.394531 3.644531 -0.242188 3.5 -0.140625 C 3.351562 -0.046875 3.207031 0 3.0625 0 C 2.90625 0 2.753906 -0.046875 2.609375 -0.140625 C 2.472656 -0.242188 2.40625 -0.394531 2.40625 -0.59375 L 2.40625 -5.96875 L 0.34375 -5.96875 C 0.125 -5.96875 -0.03125 -6.023438 -0.125 -6.140625 C -0.226562 -6.265625 -0.28125 -6.394531 -0.28125 -6.53125 C -0.28125 -6.6875 -0.226562 -6.820312 -0.125 -6.9375 C -0.03125 -7.050781 0.125 -7.109375 0.34375 -7.109375 Z M 5.78125 -7.109375 "/></g></g></g><g fill="#ffffff" fill-opacity="1"><g transform="translate(216.976218, 41.610608)"><g><path d="M 5.828125 -1.109375 C 6.015625 -1.109375 6.160156 -1.046875 6.265625 -0.921875 C 6.378906 -0.804688 6.4375 -0.675781 6.4375 -0.53125 C 6.4375 -0.394531 6.382812 -0.269531 6.28125 -0.15625 C 6.1875 -0.0507812 6.035156 0 5.828125 0 L 1.390625 0 C 1.160156 0 0.976562 -0.0625 0.84375 -0.1875 C 0.707031 -0.320312 0.640625 -0.484375 0.640625 -0.671875 L 0.640625 -6.453125 C 0.640625 -6.628906 0.707031 -6.78125 0.84375 -6.90625 C 0.976562 -7.039062 1.160156 -7.109375 1.390625 -7.109375 L 5.828125 -7.109375 C 6.023438 -7.109375 6.171875 -7.054688 6.265625 -6.953125 C 6.359375 -6.847656 6.40625 -6.722656 6.40625 -6.578125 C 6.40625 -6.441406 6.351562 -6.3125 6.25 -6.1875 C 6.15625 -6.070312 6.015625 -6.015625 5.828125 -6.015625 L 1.921875 -6.015625 L 1.921875 -4.0625 L 5.625 -4.0625 C 5.8125 -4.0625 5.953125 -4.003906 6.046875 -3.890625 C 6.148438 -3.773438 6.203125 -3.648438 6.203125 -3.515625 C 6.203125 -3.378906 6.148438 -3.253906 6.046875 -3.140625 C 5.953125 -3.023438 5.8125 -2.96875 5.625 -2.96875 L 1.921875 -2.96875 L 1.921875 -1.109375 Z M 5.828125 -1.109375 "/></g></g></g><g fill="#ffffff" fill-opacity="1"><g transform="translate(228.333193, 41.610608)"><g><path d="M 6.453125 -1.09375 C 6.617188 -0.914062 6.695312 -0.742188 6.6875 -0.578125 C 6.6875 -0.410156 6.625 -0.269531 6.5 -0.15625 C 6.382812 -0.0507812 6.242188 0 6.078125 0 C 5.921875 0.0078125 5.769531 -0.0625 5.625 -0.21875 L 3.625 -2.34375 L 1.9375 -2.34375 L 1.9375 -0.578125 C 1.9375 -0.390625 1.867188 -0.242188 1.734375 -0.140625 C 1.597656 -0.046875 1.453125 0 1.296875 0 C 1.128906 0 0.976562 -0.046875 0.84375 -0.140625 C 0.707031 -0.242188 0.640625 -0.382812 0.640625 -0.5625 L 0.640625 -6.53125 C 0.640625 -6.707031 0.703125 -6.847656 0.828125 -6.953125 C 0.953125 -7.054688 1.109375 -7.109375 1.296875 -7.109375 L 3.78125 -7.109375 C 4.457031 -7.109375 5.019531 -7 5.46875 -6.78125 C 5.914062 -6.570312 6.25 -6.285156 6.46875 -5.921875 C 6.6875 -5.554688 6.796875 -5.148438 6.796875 -4.703125 C 6.796875 -4.179688 6.65625 -3.722656 6.375 -3.328125 C 6.101562 -2.941406 5.679688 -2.664062 5.109375 -2.5 Z M 1.9375 -3.4375 L 3.796875 -3.4375 C 4.390625 -3.4375 4.820312 -3.554688 5.09375 -3.796875 C 5.375 -4.046875 5.507812 -4.34375 5.5 -4.6875 C 5.488281 -5.0625 5.332031 -5.367188 5.03125 -5.609375 C 4.738281 -5.859375 4.328125 -5.984375 3.796875 -5.984375 L 1.9375 -5.984375 Z M 1.9375 -3.4375 "/></g></g></g></g></g></g></g></g></svg>